<svg width="22" height="22" viewBox="0 0 22 22" fill="none" xmlns="http://www.w3.org/2000/svg">
<rect width="20" height="20" rx="1" fill="#398FC0"/>
<rect x="2.5" y="2.5" width="19" height="19" rx="0.5" stroke="#398FC0"/>
<path d="M11.9816 12.7241H10.7571C10.5725 14.1552 9.4357 15.292 8.00464 15.4765V16.9999H11.9816V12.7241Z" fill="white"/>
<path d="M7.59457 12.8621C7.89674 12.8621 8.14262 12.6162 8.14262 12.3141C8.14262 12.0119 7.89674 11.7661 7.59457 11.7661C7.29251 11.7661 7.04663 12.0119 7.04663 12.3141C7.04663 12.6162 7.29251 12.8621 7.59457 12.8621Z" fill="white"/>
<path d="M7.59462 14.6824C8.90071 14.6824 9.96317 13.6199 9.96317 12.3139C9.96317 11.0079 8.90071 9.94531 7.59462 9.94531C6.28864 9.94531 5.22607 11.0079 5.22607 12.3139C5.22607 13.6199 6.28864 14.6824 7.59462 14.6824ZM7.59462 10.9456C8.34914 10.9456 8.96298 11.5593 8.96298 12.3139C8.96298 13.0684 8.34914 13.6822 7.59462 13.6822C6.84021 13.6822 6.22636 13.0684 6.22636 12.3139C6.22636 11.5593 6.84021 10.9456 7.59462 10.9456Z" fill="white"/>
<path d="M7.18434 9.15173V7.92725H3V11.9041H4.43202C4.61659 10.4731 5.75339 9.3363 7.18434 9.15173Z" fill="white"/>
<path d="M12.8018 6.20178C13.2321 6.33626 13.5723 6.67645 13.7068 7.1068H16.9999V3H12.8018V6.20178Z" fill="white"/>
<path d="M11.0765 7.92725H8.00464V9.15173C9.4357 9.3363 10.5725 10.4731 10.7571 11.9041H11.9816V8.83226C11.5512 8.69778 11.211 8.35748 11.0765 7.92725Z" fill="white"/>
<path d="M3 3H7.18434V7.1068H3V3Z" fill="white"/>
<path d="M16.9999 7.92725H13.7068C13.5723 8.35748 13.232 8.69778 12.8018 8.83226V11.9041H16.9999V7.92725Z" fill="white"/>
<path d="M7.18434 15.4765C5.75339 15.292 4.61659 14.1552 4.43202 12.7241H3V16.9999H7.18434V15.4765Z" fill="white"/>
<path d="M12.8018 12.7241H16.9999V16.9999H12.8018V12.7241Z" fill="white"/>
<path d="M12.3917 6.95996C12.0844 6.95996 11.8345 7.2099 11.8345 7.5172C11.8345 7.82449 12.0844 8.07443 12.3917 8.07443C12.699 8.07443 12.9489 7.82449 12.9489 7.5172C12.9489 7.2099 12.699 6.95996 12.3917 6.95996Z" fill="white"/>
<path d="M8.00464 7.1068H11.0765C11.211 6.67645 11.5512 6.33626 11.9816 6.20178V3H8.00464V7.1068Z" fill="white"/>
</svg>
