<svg width="22" height="22" viewBox="0 0 22 22" fill="none" xmlns="http://www.w3.org/2000/svg">
<rect width="20" height="20" rx="1" fill="#398FC0"/>
<rect x="2.5" y="2.5" width="19" height="19" rx="0.5" stroke="#398FC0"/>
<path d="M16.7137 15.3072L15.801 14.3945C15.6227 14.2162 15.3338 14.2162 15.1555 14.3945C14.9772 14.5726 14.9772 14.8618 15.1555 15.04L15.2892 15.1738H6.53686L6.67063 15.04C6.84894 14.8619 6.84894 14.5727 6.67063 14.3945C6.49232 14.2162 6.20341 14.2162 6.02507 14.3945L5.11234 15.3072C5.02279 15.3966 4.97827 15.5186 4.97827 15.6303C4.97827 15.7444 5.02514 15.8664 5.11234 15.9534L6.02507 16.8661C6.20341 17.0445 6.49226 17.0445 6.67063 16.8661C6.84894 16.688 6.84894 16.3988 6.67063 16.2206L6.53686 16.0868H15.2892L15.1555 16.2206C14.9772 16.3987 14.9772 16.6879 15.1555 16.8661C15.3338 17.0445 15.6227 17.0445 15.801 16.8661L16.7137 15.9534C16.8032 15.8642 16.8478 15.7423 16.8478 15.6303C16.8478 15.5132 16.801 15.3942 16.7137 15.3072Z" fill="white"/>
<path d="M5.11197 12.5685L4.97821 12.7022V4.55856L5.11197 4.69232C5.29031 4.87066 5.57917 4.87066 5.75753 4.69232C5.93587 4.51399 5.93587 4.22513 5.75753 4.04676L4.84447 3.13373C4.66616 2.95542 4.37725 2.95542 4.19891 3.13373L3.28588 4.04676C3.10754 4.2251 3.10754 4.51396 3.28588 4.69232C3.46419 4.87063 3.7531 4.87063 3.93144 4.69232L4.06517 4.55856V12.7022L3.93141 12.5685C3.7531 12.3901 3.46419 12.3901 3.28585 12.5685C3.10752 12.7468 3.10752 13.0356 3.28585 13.214L4.19888 14.127C4.37722 14.3054 4.66608 14.3054 4.84444 14.127L5.75748 13.214C5.93581 13.0357 5.93581 12.7468 5.7575 12.5685C5.57919 12.3902 5.29028 12.3902 5.11197 12.5685Z" fill="white"/>
<path d="M14.5654 6.65216H16.8479V3.45653C16.8479 3.20434 16.6434 3 16.3914 3H10.1523V6.65216H12.4349C12.6869 6.65216 12.8914 6.8565 12.8914 7.10869C12.8914 7.36088 12.6869 7.56522 12.4349 7.56522H10.1523V8.93479C10.1523 9.18698 9.94779 9.39132 9.69577 9.39132C9.44374 9.39132 9.23924 9.18698 9.23924 8.93479V3H7.26097C7.00895 3 6.80444 3.20434 6.80444 3.45653V12.8913C6.80444 13.1435 7.00895 13.3478 7.26097 13.3478H9.23924V11.0652C9.23924 10.813 9.44374 10.6087 9.69577 10.6087C9.94779 10.6087 10.1523 10.813 10.1523 11.0652V13.3478H16.3914C16.6434 13.3478 16.8479 13.1435 16.8479 12.8913V7.56522H14.5654C14.3133 7.56522 14.1088 7.36088 14.1088 7.10869C14.1088 6.8565 14.3133 6.65216 14.5654 6.65216Z" fill="white"/>
</svg>
