<svg width="16" height="36" viewBox="0 0 16 36" fill="none" xmlns="http://www.w3.org/2000/svg">
<path d="M3.6 0.8C2.93726 -0.0836556 1.68366 -0.262742 0.8 0.4C-0.0836556 1.06274 -0.262742 2.31634 0.4 3.2L3.6 0.8ZM14 18L15.6 19.2C16.1333 18.4889 16.1333 17.5111 15.6 16.8L14 18ZM0.4 32.8C-0.262742 33.6837 -0.0836556 34.9373 0.8 35.6C1.68366 36.2627 2.93726 36.0837 3.6 35.2L0.4 32.8ZM0.4 3.2L12.4 19.2L15.6 16.8L3.6 0.8L0.4 3.2ZM12.4 16.8L0.4 32.8L3.6 35.2L15.6 19.2L12.4 16.8Z" fill="#828282"/>
</svg>
