<svg width="16" height="36" viewBox="0 0 16 36" fill="none" xmlns="http://www.w3.org/2000/svg">
<path d="M12.4 0.8C13.0627 -0.0836556 14.3163 -0.262742 15.2 0.4C16.0837 1.06274 16.2627 2.31634 15.6 3.2L12.4 0.8ZM2 18L0.4 19.2C-0.133333 18.4889 -0.133333 17.5111 0.4 16.8L2 18ZM15.6 32.8C16.2627 33.6837 16.0837 34.9373 15.2 35.6C14.3163 36.2627 13.0627 36.0837 12.4 35.2L15.6 32.8ZM15.6 3.2L3.6 19.2L0.4 16.8L12.4 0.8L15.6 3.2ZM3.6 16.8L15.6 32.8L12.4 35.2L0.4 19.2L3.6 16.8Z" fill="#828282" fill-opacity="0.3"/>
</svg>
