<svg width="110" height="110" viewBox="0 0 110 110" fill="none" xmlns="http://www.w3.org/2000/svg">
<path d="M27.5 24.0625C27.5079 22.1701 26.9948 20.312 26.0171 18.6917C25.0394 17.0714 23.6346 15.7515 21.9567 14.8763C20.2788 14.0011 18.3925 13.6045 16.5042 13.7299C14.6159 13.8554 12.7986 14.4979 11.2512 15.5873C9.70376 16.6767 8.48594 18.1709 7.73107 19.9062C6.97621 21.6416 6.7134 23.5512 6.97144 25.4259C7.22948 27.3007 7.99841 29.0683 9.19403 30.5352C10.3897 32.002 11.9659 33.1116 13.75 33.7425V92.8125C13.75 93.7241 14.1122 94.5985 14.7569 95.2431C15.4015 95.8878 16.2759 96.25 17.1875 96.25C18.0992 96.25 18.9736 95.8878 19.6182 95.2431C20.2629 94.5985 20.625 93.7241 20.625 92.8125V33.7425C22.6288 33.0341 24.3647 31.7239 25.5954 29.9911C26.826 28.2584 27.4912 26.1877 27.5 24.0625Z" fill="url(#paint0_linear_174_15642)"/>
<path d="M85.9375 13.75H51.5625C47.0058 13.7555 42.6372 15.568 39.4151 18.7901C36.193 22.0122 34.3805 26.3808 34.375 30.9375V75.625C34.3838 77.7503 35.049 79.8209 36.2797 81.5536C37.5103 83.2864 39.2463 84.5966 41.25 85.305V89.375C41.25 91.1984 41.9743 92.947 43.2636 94.2364C44.553 95.5257 46.3016 96.25 48.125 96.25H55C56.8234 96.25 58.572 95.5257 59.8614 94.2364C61.1507 92.947 61.875 91.1984 61.875 89.375V85.9375H75.625V89.375C75.625 91.1984 76.3493 92.947 77.6386 94.2364C78.928 95.5257 80.6766 96.25 82.5 96.25H89.375C91.1984 96.25 92.947 95.5257 94.2364 94.2364C95.5257 92.947 96.25 91.1984 96.25 89.375V85.305C98.2537 84.5966 99.9897 83.2864 101.22 81.5536C102.451 79.8209 103.116 77.7503 103.125 75.625V30.9375C103.12 26.3808 101.307 22.0122 98.0849 18.7901C94.8628 15.568 90.4942 13.7555 85.9375 13.75ZM48.125 72.1875C48.125 71.5076 48.3266 70.843 48.7043 70.2777C49.082 69.7124 49.6189 69.2718 50.247 69.0117C50.8751 68.7515 51.5663 68.6834 52.2331 68.8161C52.8999 68.9487 53.5124 69.2761 53.9932 69.7568C54.4739 70.2376 54.8013 70.8501 54.934 71.5169C55.0666 72.1837 54.9985 72.8749 54.7383 73.503C54.4782 74.1311 54.0376 74.668 53.4723 75.0457C52.907 75.4234 52.2424 75.625 51.5625 75.625C50.6508 75.625 49.7765 75.2628 49.1318 74.6182C48.4872 73.9735 48.125 73.0992 48.125 72.1875ZM82.5 72.1875C82.5 71.5076 82.7016 70.843 83.0793 70.2777C83.457 69.7124 83.9939 69.2718 84.622 69.0117C85.2501 68.7515 85.9413 68.6834 86.6081 68.8161C87.2749 68.9487 87.8874 69.2761 88.3682 69.7568C88.8489 70.2376 89.1763 70.8501 89.3089 71.5169C89.4416 72.1837 89.3735 72.8749 89.1133 73.503C88.8532 74.1311 88.4126 74.668 87.8473 75.0457C87.282 75.4234 86.6174 75.625 85.9375 75.625C85.0258 75.625 84.1515 75.2628 83.5068 74.6182C82.8622 73.9735 82.5 73.0992 82.5 72.1875ZM96.25 55C96.25 55.9117 95.8878 56.786 95.2432 57.4307C94.5985 58.0753 93.7242 58.4375 92.8125 58.4375H44.6875C43.7758 58.4375 42.9015 58.0753 42.2568 57.4307C41.6122 56.786 41.25 55.9117 41.25 55V34.375C41.25 32.5516 41.9743 30.803 43.2636 29.5136C44.553 28.2243 46.3016 27.5 48.125 27.5H89.375C91.1984 27.5 92.947 28.2243 94.2364 29.5136C95.5257 30.803 96.25 32.5516 96.25 34.375V55Z" fill="url(#paint1_linear_174_15642)"/>
<defs>
<linearGradient id="paint0_linear_174_15642" x1="17.1876" y1="13.7073" x2="17.1876" y2="96.25" gradientUnits="userSpaceOnUse">
<stop stop-color="#398FC0"/>
<stop offset="1" stop-color="#2A6C92"/>
</linearGradient>
<linearGradient id="paint1_linear_174_15642" x1="68.75" y1="13.75" x2="68.75" y2="96.25" gradientUnits="userSpaceOnUse">
<stop stop-color="#398FC0"/>
<stop offset="1" stop-color="#2A6C92"/>
</linearGradient>
</defs>
</svg>
