<svg width="30" height="30" viewBox="0 0 30 30" fill="none" xmlns="http://www.w3.org/2000/svg">
<g clip-path="url(#clip0_174_15690)">
<path d="M17.4457 8.34913C16.7753 7.68469 16.4061 6.80052 16.4061 5.85959C16.4061 4.91843 16.7753 4.03449 17.4457 3.37005L20.5031 0.33967C20.9629 -0.115802 21.7047 -0.112598 22.1604 0.347224C22.6159 0.806816 22.6127 1.54885 22.1529 2.00432L19.5047 4.62913H23.5518C27.1029 4.62913 29.9941 7.51806 29.9971 11.0689L29.9998 14.2959C30.0003 14.9432 29.4761 15.4682 28.8288 15.4687C28.8286 15.4687 28.8282 15.4687 28.8279 15.4687C28.1811 15.4687 27.6565 14.9448 27.6561 14.298L27.6533 11.071C27.6515 8.81124 25.8115 6.97287 23.5518 6.97287H19.3864L22.1529 9.71463C22.6127 10.1703 22.6159 10.9121 22.1604 11.372C21.9313 11.6031 21.6296 11.7189 21.328 11.7189C21.0297 11.7189 20.7315 11.6059 20.5031 11.3793L17.4457 8.34913ZM28.6359 21.1236C26.9992 19.5455 25.6279 18.6346 24.3206 18.2567C22.5191 17.7362 20.8505 18.2095 19.3612 19.6641C19.3589 19.6661 19.3568 19.6684 19.3546 19.6707L17.7686 21.2445C16.7835 20.6913 14.8687 19.4734 12.7745 17.3792L12.6202 17.2251C10.5397 15.1446 9.31424 13.2188 8.75669 12.2298L10.3293 10.6455C10.3314 10.6432 10.3337 10.6409 10.336 10.6386C11.7903 9.14952 12.2636 7.48098 11.7431 5.67923C11.3652 4.37186 10.4543 3.00064 8.87616 1.36414C8.07004 0.528268 6.98721 0.044872 5.82678 0.0029868C4.6659 -0.0391273 3.55148 0.365305 2.68723 1.14098L2.65358 1.17119C2.63802 1.18539 2.62291 1.1998 2.60803 1.21445C0.887765 2.93472 -0.0140257 5.34301 0.000164928 8.17907C0.0241974 12.9968 2.67212 18.5062 7.08288 22.9169C7.91463 23.7487 8.86014 24.572 9.89239 25.3634C10.4062 25.7573 11.1416 25.6601 11.5355 25.1465C11.9292 24.6329 11.8322 23.8972 11.3185 23.5036C10.3673 22.7743 9.49986 22.0193 8.74021 21.2598C4.75608 17.2757 2.36496 12.3813 2.3439 8.16739C2.33292 5.98341 2.99003 4.16015 4.24407 2.89306L4.253 2.88505C5.10489 2.12036 6.39441 2.16683 7.18885 2.99103C10.2231 6.13745 10.0032 7.62289 8.66239 8.99777L6.49031 11.1861C6.14973 11.5292 6.05475 12.0467 6.25159 12.4884C6.30675 12.6123 7.64089 15.5602 10.9636 18.8829L11.1176 19.0369C14.4398 22.3591 17.3878 23.6931 17.5116 23.7482C17.9533 23.9448 18.4706 23.8503 18.8139 23.5095L21.0025 21.3372C22.3774 19.9966 23.8626 19.7769 27.009 22.8107C27.833 23.6054 27.8794 24.8949 27.1152 25.7466L27.107 25.7557C25.8502 26.9997 24.0466 27.6561 21.8862 27.6561C21.8684 27.6561 21.8505 27.6561 21.8326 27.6559C20.1057 27.6474 18.1062 27.1741 16.0502 26.2872C15.456 26.0309 14.7662 26.3048 14.5101 26.899C14.2537 27.4934 14.5277 28.1828 15.1219 28.4391C17.4986 29.4643 19.7523 29.9893 21.821 29.9996C21.8429 29.9999 21.8649 29.9999 21.8869 29.9999C24.6943 29.9999 27.0786 29.0988 28.7856 27.392C28.8002 27.3771 28.8147 27.3618 28.8288 27.3462L28.8591 27.3124C29.6347 26.4483 30.0389 25.3335 29.9971 24.173C29.9549 23.0126 29.4715 21.9298 28.6359 21.1236Z" fill="#F6F6F6"/>
</g>
<defs>
<clipPath id="clip0_174_15690">
<rect width="30" height="30" fill="white"/>
</clipPath>
</defs>
</svg>
