<svg width="26" height="26" viewBox="0 0 26 26" fill="none" xmlns="http://www.w3.org/2000/svg">
<path fill-rule="evenodd" clip-rule="evenodd" d="M3.84872 1.02085C3.06767 0.239797 1.80134 0.239797 1.02029 1.02085C0.239243 1.80189 0.239243 3.06822 1.02029 3.84927L10.2126 13.0416L1.02029 22.234C0.239243 23.015 0.239243 24.2814 1.02029 25.0624C1.80134 25.8435 3.06767 25.8435 3.84872 25.0624L13.0411 15.8701L22.2335 25.0625C23.0145 25.8435 24.2809 25.8435 25.0619 25.0625C25.843 24.2814 25.843 23.0151 25.0619 22.2341L15.8695 13.0416L25.0619 3.8492C25.843 3.06816 25.843 1.80183 25.0619 1.02078C24.2809 0.239727 23.0145 0.239728 22.2335 1.02078L13.0411 10.2132L3.84872 1.02085Z" fill="#F6F6F6"/>
</svg>
