<svg width="32" height="32" viewBox="0 0 32 32" fill="none" xmlns="http://www.w3.org/2000/svg">
<path fill-rule="evenodd" clip-rule="evenodd" d="M6.80867 4.39336C6.41814 4.00283 5.78498 4.00283 5.39446 4.39336C5.00393 4.78388 5.00393 5.41705 5.39446 5.80757L14.5869 15.0001L5.39461 24.1924C5.00408 24.5829 5.00408 25.2161 5.39461 25.6066C5.78513 25.9971 6.4183 25.9971 6.80882 25.6066L16.0012 16.4143L25.1934 25.6066C25.584 25.9971 26.2171 25.9971 26.6077 25.6066C26.9982 25.216 26.9982 24.5829 26.6077 24.1923L17.4154 15.0001L26.6078 5.80762C26.9983 5.4171 26.9983 4.78394 26.6078 4.39341C26.2173 4.00289 25.5841 4.00289 25.1936 4.39341L16.0012 13.5858L6.80867 4.39336Z" fill="#272727"/>
</svg>
