<svg width="22" height="22" viewBox="0 0 22 22" fill="none" xmlns="http://www.w3.org/2000/svg">
<path fill-rule="evenodd" clip-rule="evenodd" d="M1.80867 0.393357C1.41814 0.00283282 0.78498 0.00283278 0.394455 0.393357C0.00393113 0.783881 0.00393173 1.41705 0.394456 1.80757L9.58695 11.0001L0.394606 20.1924C0.00408221 20.5829 0.00408217 21.2161 0.394606 21.6066C0.785131 21.9971 1.4183 21.9971 1.80882 21.6066L11.0012 12.4143L20.1934 21.6066C20.584 21.9971 21.2171 21.9971 21.6077 21.6066C21.9982 21.216 21.9982 20.5829 21.6077 20.1923L12.4154 11.0001L21.6078 1.80762C21.9983 1.4171 21.9983 0.783936 21.6078 0.393411C21.2173 0.00288702 20.5841 0.00288761 20.1936 0.393412L11.0012 9.58585L1.80867 0.393357Z" fill="#272727"/>
</svg>
