<svg width="30" height="30" viewBox="0 0 30 30" fill="none" xmlns="http://www.w3.org/2000/svg">
<path d="M17.2834 5.86963H4.8921C4.35187 5.86963 3.91382 6.30762 3.91382 6.84791C3.91382 7.3882 4.35181 7.82619 4.8921 7.82619H17.2834C17.8236 7.82619 18.2617 7.3882 18.2617 6.84791C18.2617 6.30762 17.8236 5.86963 17.2834 5.86963Z" fill="#F6F6F6"/>
<path d="M17.2834 9.78259H4.8921C4.35187 9.78259 3.91382 10.2206 3.91382 10.7609C3.91382 11.3011 4.35181 11.7392 4.8921 11.7392H17.2834C17.8236 11.7392 18.2617 11.3012 18.2617 10.7609C18.2617 10.2206 17.8236 9.78259 17.2834 9.78259Z" fill="#F6F6F6"/>
<path d="M17.2834 13.6957H4.8921C4.35187 13.6957 3.91382 14.1337 3.91382 14.674C3.91382 15.2142 4.35181 15.6522 4.8921 15.6522H17.2834C17.8237 15.6522 18.2617 15.2143 18.2617 14.674C18.2617 14.1337 17.8236 13.6957 17.2834 13.6957Z" fill="#F6F6F6"/>
<path d="M29.1408 9.33791C27.9966 8.19381 26.1348 8.19398 24.9907 9.33803L22.1744 12.1543V2.93479C22.1744 1.31654 20.8579 0 19.2396 0H2.93527C1.31703 0 0.000488281 1.31654 0.000488281 2.93479V21.1956C0.000488281 21.4508 0.101973 21.7024 0.287188 21.8875L8.11297 29.7133C8.2908 29.8911 8.53918 30 8.80484 30H19.2396C20.8579 30 22.1744 28.6835 22.1744 27.0652V20.4544L29.1408 13.488C30.285 12.3439 30.285 10.4822 29.1408 9.33791ZM3.34051 22.1739H6.84834C7.38775 22.1739 7.82662 22.6128 7.82662 23.1522V26.66L3.34051 22.1739ZM20.2179 27.0652C20.2179 27.6046 19.779 28.0435 19.2396 28.0435H9.78312V23.1521C9.78312 21.5339 8.46658 20.2174 6.84834 20.2174H1.95705V2.93479C1.95705 2.39537 2.39592 1.9565 2.93533 1.9565H19.2397C19.7791 1.9565 20.218 2.39537 20.218 2.93479V14.1108L14.2299 20.0988C14.1245 20.2042 14.0452 20.3365 14.0009 20.4598L12.4495 24.7779C12.1706 25.554 12.923 26.3088 13.7009 26.0293L18.019 24.4778C18.146 24.4323 18.2783 24.3505 18.3799 24.2489L20.218 22.4109V27.0652H20.2179ZM15.9056 23.1582L14.9925 23.4863L15.3206 22.5731L15.9056 23.1582ZM17.6882 22.1738L16.3051 20.7907L24.7042 12.3914L26.0874 13.7746L17.6882 22.1738ZM27.7573 12.1046L27.4708 12.3912L26.0875 11.008L26.3741 10.7214C26.7554 10.34 27.3758 10.3401 27.7572 10.7214C28.1387 11.1029 28.1387 11.7233 27.7573 12.1046Z" fill="#F6F6F6"/>
</svg>
