<svg width="30" height="30" viewBox="0 0 30 30" fill="none" xmlns="http://www.w3.org/2000/svg">
<circle cx="15" cy="15" r="15" fill="#EA4335"/>
<path d="M22.472 10.5695C22.4069 10.1339 22.1878 9.73613 21.8546 9.44819C21.5213 9.16026 21.0959 9.00125 20.6555 9H9.34452C8.90411 9.00125 8.47872 9.16026 8.14547 9.44819C7.81222 9.73613 7.59317 10.1339 7.52802 10.5695L15 15.4045L22.472 10.5695Z" fill="white"/>
<path d="M15.2715 16.4199C15.1906 16.4722 15.0963 16.5001 15 16.5001C14.9037 16.5001 14.8094 16.4722 14.7285 16.4199L7.5 11.7429V19.1554C7.50053 19.6445 7.69503 20.1133 8.04083 20.4591C8.38662 20.8049 8.85547 20.9994 9.3445 20.9999H20.6555C21.1445 20.9994 21.6134 20.8049 21.9592 20.4591C22.305 20.1133 22.4995 19.6445 22.5 19.1554V11.7424L15.2715 16.4199Z" fill="white"/>
</svg>
