<svg width="30" height="30" viewBox="0 0 30 30" fill="none" xmlns="http://www.w3.org/2000/svg">
<g clip-path="url(#clip0_272_2157)">
<circle cx="15" cy="15" r="15" fill="white"/>
<path fill-rule="evenodd" clip-rule="evenodd" d="M15 30C23.2843 30 30 23.2843 30 15C30 6.71574 23.2843 0 15 0C6.71574 0 0 6.71574 0 15C0 23.2843 6.71574 30 15 30ZM9.71934 12.276H12.834V9.60474C12.834 6.50706 14.7251 4.821 17.4884 4.821C18.4211 4.81769 19.3532 4.86534 20.2807 4.96374V8.20134H18.3752C16.8718 8.20134 16.5806 8.91576 16.5806 9.96426V12.276H20.1752L19.7069 15.906H16.5809V25.179H12.834V15.906H9.71934V12.276Z" fill="#1877F2"/>
</g>
<defs>
<clipPath id="clip0_272_2157">
<rect width="30" height="30" fill="white"/>
</clipPath>
</defs>
</svg>
