<svg width="40" height="40" viewBox="0 0 40 40" fill="none" xmlns="http://www.w3.org/2000/svg">
<path fill-rule="evenodd" clip-rule="evenodd" d="M20 39.5312C30.7868 39.5312 39.5312 30.7868 39.5312 20C39.5312 9.2132 30.7868 0.46875 20 0.46875C9.2132 0.46875 0.46875 9.2132 0.46875 20C0.46875 30.7868 9.2132 39.5312 20 39.5312ZM13.1241 16.4531H17.1797V12.9749C17.1797 8.94148 19.6421 6.74609 23.2401 6.74609C24.4545 6.74179 25.6683 6.80383 26.8759 6.93195V11.1476H24.3948C22.4372 11.1476 22.0581 12.0778 22.0581 13.443V16.4531H26.7386L26.1287 21.1797H22.0584V33.2539H17.1797V21.1797H13.1241V16.4531Z" fill="#398FC0"/>
</svg>
