<svg width="60" height="60" viewBox="0 0 60 60" fill="none" xmlns="http://www.w3.org/2000/svg">
<g opacity="0.4" filter="url(#filter0_f_132_15588)">
<path d="M30 34.1016C32.2652 34.1016 34.1016 32.2652 34.1016 30C34.1016 27.7348 32.2652 25.8984 30 25.8984C27.7348 25.8984 25.8984 27.7348 25.8984 30C25.8984 32.2652 27.7348 34.1016 30 34.1016Z" fill="#398FC0"/>
<path d="M30 10.4688C19.2132 10.4688 10.4688 19.2132 10.4688 30C10.4688 40.7868 19.2132 49.5312 30 49.5312C40.7868 49.5312 49.5312 40.7868 49.5312 30C49.5312 19.2132 40.7868 10.4688 30 10.4688ZM42.067 34.9641C41.9733 36.8209 41.4515 38.652 40.0983 39.9909C38.732 41.3424 36.8922 41.846 35.0174 41.9388H24.9827C23.1077 41.846 21.2681 41.3427 19.9018 39.9909C18.5485 38.652 18.0268 36.8209 17.933 34.9641V25.0359C18.0268 23.1791 18.5486 21.348 19.9018 20.0091C21.2681 18.6575 23.1079 18.1539 24.9827 18.0612H35.0173C36.8923 18.1539 38.7319 18.6573 40.0982 20.0091C41.4515 21.348 41.9732 23.1791 42.067 25.0359L42.067 34.9641Z" fill="#398FC0"/>
<path d="M34.8906 20.3232C32.4464 20.2562 27.5542 20.2562 25.11 20.3232C23.838 20.3581 22.396 20.6748 21.4898 21.6428C20.5481 22.6489 20.1922 23.8646 20.1561 25.2245C20.0927 27.6113 20.1561 34.7754 20.1561 34.7754C20.1975 36.1352 20.5481 37.351 21.4898 38.3571C22.396 39.3254 23.838 39.6417 25.11 39.6767C27.5542 39.7437 32.4464 39.7437 34.8906 39.6767C36.1625 39.6417 37.6045 39.3251 38.5107 38.3571C39.4525 37.351 39.8083 36.1353 39.8444 34.7754V25.2245C39.8083 23.8646 39.4525 22.6489 38.5107 21.6428C37.6042 20.6745 36.1622 20.3581 34.8906 20.3232ZM30 36.3574C28.7426 36.3574 27.5134 35.9845 26.468 35.2859C25.4225 34.5874 24.6076 33.5945 24.1265 32.4328C23.6453 31.2712 23.5194 29.9929 23.7647 28.7597C24.01 27.5265 24.6155 26.3937 25.5046 25.5046C26.3937 24.6155 27.5265 24.01 28.7597 23.7647C29.9929 23.5194 31.2712 23.6453 32.4328 24.1264C33.5945 24.6076 34.5874 25.4225 35.286 26.4679C35.9845 27.5134 36.3574 28.7426 36.3574 29.9999C36.3574 31.686 35.6876 33.3031 34.4953 34.4953C33.3031 35.6876 31.686 36.3574 30 36.3574ZM36.3844 24.9548C36.1329 24.9547 35.8871 24.8801 35.6781 24.7404C35.469 24.6006 35.3061 24.402 35.2099 24.1697C35.1137 23.9373 35.0886 23.6817 35.1377 23.4351C35.1868 23.1884 35.3079 22.9619 35.4858 22.7841C35.6636 22.6063 35.8901 22.4853 36.1368 22.4362C36.3834 22.3872 36.6391 22.4124 36.8714 22.5086C37.1037 22.6049 37.3022 22.7678 37.4419 22.9769C37.5816 23.186 37.6562 23.4318 37.6562 23.6833C37.6562 23.8503 37.6233 24.0157 37.5594 24.1699C37.4955 24.3242 37.4018 24.4644 37.2837 24.5825C37.1656 24.7006 37.0254 24.7942 36.8711 24.8581C36.7168 24.922 36.5514 24.9548 36.3844 24.9548Z" fill="#398FC0"/>
</g>
<path d="M30 29.1016C32.2652 29.1016 34.1016 27.2652 34.1016 25C34.1016 22.7348 32.2652 20.8984 30 20.8984C27.7348 20.8984 25.8984 22.7348 25.8984 25C25.8984 27.2652 27.7348 29.1016 30 29.1016Z" fill="#398FC0"/>
<path d="M30 5.46875C19.2132 5.46875 10.4688 14.2132 10.4688 25C10.4688 35.7868 19.2132 44.5312 30 44.5312C40.7868 44.5312 49.5312 35.7868 49.5312 25C49.5312 14.2132 40.7868 5.46875 30 5.46875ZM42.067 29.9641C41.9733 31.8209 41.4515 33.652 40.0983 34.9909C38.732 36.3424 36.8922 36.846 35.0174 36.9388H24.9827C23.1077 36.846 21.2681 36.3427 19.9018 34.9909C18.5485 33.652 18.0268 31.8209 17.933 29.9641V20.0359C18.0268 18.1791 18.5486 16.348 19.9018 15.0091C21.2681 13.6575 23.1079 13.1539 24.9827 13.0612H35.0173C36.8923 13.1539 38.7319 13.6573 40.0982 15.0091C41.4515 16.348 41.9732 18.1791 42.067 20.0359L42.067 29.9641Z" fill="#398FC0"/>
<path d="M34.8906 15.3232C32.4464 15.2562 27.5542 15.2562 25.11 15.3232C23.838 15.3581 22.396 15.6748 21.4898 16.6428C20.5481 17.6489 20.1922 18.8646 20.1561 20.2245C20.0927 22.6113 20.1561 29.7754 20.1561 29.7754C20.1975 31.1352 20.5481 32.351 21.4898 33.3571C22.396 34.3254 23.838 34.6417 25.11 34.6767C27.5542 34.7437 32.4464 34.7437 34.8906 34.6767C36.1625 34.6417 37.6045 34.3251 38.5107 33.3571C39.4525 32.351 39.8083 31.1353 39.8444 29.7754V20.2245C39.8083 18.8646 39.4525 17.6489 38.5107 16.6428C37.6042 15.6745 36.1622 15.3581 34.8906 15.3232ZM30 31.3574C28.7426 31.3574 27.5134 30.9845 26.468 30.2859C25.4225 29.5874 24.6076 28.5945 24.1265 27.4328C23.6453 26.2712 23.5194 24.9929 23.7647 23.7597C24.01 22.5265 24.6155 21.3937 25.5046 20.5046C26.3937 19.6155 27.5265 19.01 28.7597 18.7647C29.9929 18.5194 31.2712 18.6453 32.4328 19.1264C33.5945 19.6076 34.5874 20.4225 35.286 21.4679C35.9845 22.5134 36.3574 23.7426 36.3574 24.9999C36.3574 26.686 35.6876 28.3031 34.4953 29.4953C33.3031 30.6876 31.686 31.3574 30 31.3574ZM36.3844 19.9548C36.1329 19.9547 35.8871 19.8801 35.6781 19.7404C35.469 19.6006 35.3061 19.402 35.2099 19.1697C35.1137 18.9373 35.0886 18.6817 35.1377 18.4351C35.1868 18.1884 35.3079 17.9619 35.4858 17.7841C35.6636 17.6063 35.8901 17.4853 36.1368 17.4362C36.3834 17.3872 36.6391 17.4124 36.8714 17.5086C37.1037 17.6049 37.3022 17.7678 37.4419 17.9769C37.5816 18.186 37.6562 18.4318 37.6562 18.6833C37.6562 18.8503 37.6233 19.0157 37.5594 19.1699C37.4955 19.3242 37.4018 19.4644 37.2837 19.5825C37.1656 19.7006 37.0254 19.7942 36.8711 19.8581C36.7168 19.922 36.5514 19.9548 36.3844 19.9548Z" fill="#398FC0"/>
<defs>
<filter id="filter0_f_132_15588" x="0" y="0" width="60" height="60" filterUnits="userSpaceOnUse" color-interpolation-filters="sRGB">
<feFlood flood-opacity="0" result="BackgroundImageFix"/>
<feBlend mode="normal" in="SourceGraphic" in2="BackgroundImageFix" result="shape"/>
<feGaussianBlur stdDeviation="5" result="effect1_foregroundBlur_132_15588"/>
</filter>
</defs>
</svg>
