<svg width="30" height="30" viewBox="0 0 30 30" fill="none" xmlns="http://www.w3.org/2000/svg">
<circle cx="15" cy="15" r="15" fill="url(#paint0_linear_272_2160)"/>
<path d="M17.3159 14.9998C17.3159 16.2789 16.2789 17.3159 14.9998 17.3159C13.7206 17.3159 12.6836 16.2789 12.6836 14.9998C12.6836 13.7206 13.7206 12.6836 14.9998 12.6836C16.2789 12.6836 17.3159 13.7206 17.3159 14.9998Z" fill="white"/>
<path d="M18.9118 8H11.0882C9.38528 8 8 9.38528 8 11.0882V18.9118C8 20.6147 9.38528 22 11.0882 22H18.9118C20.6147 22 22 20.6147 22 18.9118V11.0882C22 9.38528 20.6147 8 18.9118 8ZM15 18.8603C12.8714 18.8603 11.1397 17.1286 11.1397 15C11.1397 12.8714 12.8714 11.1397 15 11.1397C17.1286 11.1397 18.8603 12.8714 18.8603 15C18.8603 17.1286 17.1286 18.8603 15 18.8603ZM19.4265 11.3456C19 11.3456 18.6544 11 18.6544 10.5735C18.6544 10.1471 19 9.80147 19.4265 9.80147C19.8529 9.80147 20.1985 10.1471 20.1985 10.5735C20.1985 11 19.8529 11.3456 19.4265 11.3456Z" fill="white"/>
<defs>
<linearGradient id="paint0_linear_272_2160" x1="20.4" y1="0.899999" x2="7.2" y2="30" gradientUnits="userSpaceOnUse">
<stop stop-color="#9E32C3"/>
<stop offset="0.242708" stop-color="#BC33AF"/>
<stop offset="0.51875" stop-color="#E7476E"/>
<stop offset="0.763542" stop-color="#FF8847"/>
<stop offset="1" stop-color="#FFC751"/>
</linearGradient>
</defs>
</svg>
