<svg width="120" height="120" viewBox="0 0 120 120" fill="none" xmlns="http://www.w3.org/2000/svg">
<g clip-path="url(#clip0_174_15672)">
<path d="M117.653 72.1937C115.63 66.8792 115.552 63.1176 116.07 60.9328C116.587 58.7601 117.725 58.0619 117.725 58.0619C117.725 58.0619 117.647 57.0869 116.672 57.0869C115.721 57.0869 112.934 57.3698 112.934 57.3698C112.934 57.3698 115.101 53.1627 115.462 46.5302C115.811 39.8976 115.281 35.9734 115.281 35.0947C115.281 34.216 114.938 33.3433 113.885 32.4706C112.838 31.5979 111.797 29.8585 112.314 29.5876C112.832 29.3288 113.53 29.7742 113.711 29.2446C113.783 29.0339 113.741 28.7149 113.711 28.4682C113.68 28.0709 113.62 27.764 113.62 27.764C113.747 27.6677 114.132 27.7279 114.138 27.4691C113.837 26.9515 113.355 26.5302 113.355 26.5302C113.355 26.5302 113.434 25.838 113.175 25.3204C112.928 24.7908 111.875 23.9241 110.743 24.1829C109.606 24.4417 108.625 24.3815 108.553 26.0427C108.498 27.0538 109.178 27.0658 109.082 27.5955C108.986 28.1251 109.028 28.8052 108.733 29.1844C108.372 29.5937 106.374 27.3246 104.971 26.8191C103.587 26.2894 102.444 26.2894 102.444 26.2894L100.788 27.6737C100.788 27.6737 95.2874 26.0186 92.3202 25.9343C89.353 25.838 88.5646 26.2894 89.0882 27.4992C89.6118 28.721 90.6771 29.9427 90.0512 30.4844C89.4433 30.99 88.8294 31.6942 89.4433 32.1155C90.0512 32.5729 90.8336 32.8317 90.8336 32.8317C90.8336 32.8317 88.1372 36.3225 93.4577 35.9674C98.7842 35.6123 100.096 34.1197 100.096 34.1197C100.096 34.1197 101.487 34.3063 101.932 34.6493C102.353 34.9924 103.16 35.6123 103.413 35.6966C103.683 35.8049 104.213 36.7438 106.211 36.8281C108.215 36.9244 108.745 36.6656 109.094 37.2735C109.455 37.8633 110.936 39.2837 110.755 40.3309C110.575 41.3782 108.715 42.0102 107.921 43.3764C106.121 46.47 107.084 50.3099 102.618 55.0044C101.589 56.0758 100.102 57.7911 98.9708 59.368C97.8333 60.9328 97.3999 62.5879 97.3999 62.5879C97.3999 62.5879 98.9708 64.0806 101.228 65.3024C103.503 66.5241 104.815 67.758 104.815 67.758L104.64 69.2265C104.64 69.2265 108.751 70.358 107.704 72.1095C106.645 73.8609 103.515 73.8609 103.515 73.8609L103.605 76.2142L106.921 76.1299C106.921 76.1299 106.831 80.5837 95.1369 82.4917C85.9103 84.0204 69.4192 84.3935 61.1857 84.4778L61.6551 55.0646L61.6973 53.5961C61.6973 53.5961 64.0566 52.4646 63.1899 50.9719C62.5459 49.9006 61.9922 49.1844 61.7454 48.8774L62.2991 13.6382L63.3042 13.0965L61.7213 6.90332L60.1384 13.0604L61.3542 13.7044L61.0412 34.0535L60.7102 48.6307C60.7102 48.6307 60.3671 49.3228 59.5727 49.69C58.8083 50.033 58.4532 49.5876 58.4532 49.5876C58.4532 49.5876 57.8513 47.5052 55.7328 45.6755C53.6443 43.8158 52.3383 43.4005 52.3383 43.4005L52.5128 42.269C52.5128 42.269 53.7526 42.9611 54.0837 42.5278C54.4328 42.0884 54.3726 41.4745 54.1077 40.8726C53.861 40.2647 53.9031 39.8194 53.8249 39.5606C53.7526 39.2897 54.4327 39.4582 54.4327 39.1092C54.4327 38.7661 53.3855 37.5563 53.3855 37.5563C53.3855 37.5563 53.223 36.3346 52.8498 35.7086C52.4887 35.0767 51.9952 34.9322 50.322 35.3595C48.6729 35.8109 48.1432 36.5151 48.3298 37.7249C48.4983 38.9406 48.8414 39.4582 48.4983 39.7351C48.1432 39.9939 47.4451 40.5115 47.8844 40.9509C48.3298 41.3902 49.016 41.7453 49.016 41.7453L48.7632 43.2199L46.5784 43.6593C46.5784 43.6593 47.108 42.275 46.4821 41.9078C45.8742 41.5588 45.5492 41.2879 45.5492 41.2879L45.5733 12.6993L46.5664 12.2419L44.9895 6.05469L43.4126 12.2058L44.4237 12.7474L44.3756 41.5828C44.3756 41.5828 43.6955 42.2629 43.9723 42.9611C44.1047 43.3463 44.2793 43.7375 44.3996 44.0986V45.507C44.0746 46.3436 43.4367 47.5894 43.4367 47.5894C43.4367 47.5894 42.4797 44.3634 41.3422 43.4787C40.2046 42.6241 38.718 42.275 38.718 42.275V40.6018C38.718 40.6018 39.5907 40.343 39.9458 39.9096C40.3009 39.4582 40.0301 38.8624 39.681 38.3267C39.3319 37.8091 39.4162 36.9304 39.0611 35.8109C38.718 34.6614 38.3689 34.9322 38.3689 34.9322C38.3689 34.9322 38.1101 33.885 36.6235 34.1317C35.1369 34.4026 34.6253 35.1007 34.7156 36.6716C34.7939 38.2365 34.186 38.2365 34.2763 39.0249C34.3425 39.8194 35.0647 40.6018 35.4017 40.6018C35.7629 40.6018 35.8351 41.2939 35.2272 41.7393C34.6253 42.1787 31.3632 43.2861 31.3632 43.2861C31.3632 43.2861 30.9479 46.801 31.1285 49.69C31.297 52.5729 31.9049 53.5961 32.6031 54.0415C33.2952 54.4989 33.6503 54.7577 33.6503 54.7577C33.6503 54.7577 33.0424 56.8401 32.8739 58.6578C32.7054 60.4995 32.7054 61.1073 32.7054 61.1073L31.1285 60.4212C31.1285 60.4212 30.6891 58.8443 30.6891 58.0679C30.6891 57.2554 30.5989 55.7026 30.5206 55.0947C30.4424 54.4929 30.0813 50.7312 30.4424 49.2386C30.7915 47.764 30.2618 46.1991 30.3461 45.6815C30.4424 45.1399 30.5086 44.1769 29.8104 43.3042C29.1123 42.4435 28.8595 42.1727 28.077 41.8055C27.2826 41.4865 26.5904 41.5588 26.4219 40.7823C26.2414 39.9939 26.3316 39.2175 26.3316 39.2175C26.3316 39.2175 27.2826 39.38 27.5534 37.8753C27.8122 36.4128 27.9928 35.8109 27.0238 35.3595C27.0238 35.3595 27.3969 34.3604 26.6145 33.3132C25.8321 32.2539 24.839 32.4766 24.839 32.4766L24.2371 32.3021C24.2371 32.3021 22.7626 32.4766 22.2269 33.4516C21.7033 34.4026 21.9862 34.7998 21.9862 35.4257C21.9862 36.0276 21.1857 36.7679 21.8718 37.2855C22.1968 37.5202 21.7033 38.6818 22.4977 38.9406C23.2681 39.2115 23.2681 39.2115 23.2681 39.2115C23.2681 39.2115 23.6293 40.5055 23.0936 40.343C22.57 40.1564 21.4324 39.2897 19.9639 39.4582C18.4773 39.6569 17.2555 39.6569 16.3888 40.0661C15.5041 40.5055 16.0277 40.68 14.7216 40.68C13.4156 40.68 11.8387 40.68 11.8387 40.68C11.8387 40.68 11.2368 40.0661 10.978 40.0661C10.7012 40.0661 7.39091 39.9036 7.39091 39.9036L6.60247 40.2647L4.33344 40.1564L3.19591 39.8194C3.19591 39.8194 2.75053 38.7601 2.49774 38.7601C2.49774 38.7601 3.26813 30.4844 5.89227 27.4149C8.51038 24.3634 9.91273 24.6102 12.6994 24.0204C15.498 23.4005 17.7791 22.5458 18.9889 21.2217C20.2227 19.9096 20.7463 18.4351 20.7463 18.4351C20.7463 18.4351 21.0232 17.3276 20.5116 18.1522C18.9949 20.5356 18.3268 21.1435 17.3638 21.6129C13.6142 23.4366 12.0072 22.7986 8.8715 23.8458C5.72375 24.8811 4.68252 26.0186 3.19591 29.2506C1.7093 32.4766 1.01715 38.9406 1.01715 38.9406C1.01715 38.9406 0.222692 39.38 0.222692 40.0661C0.222692 40.7703 -0.210651 41.9921 0.126394 42.2629C0.481494 42.5338 0.758353 42.3352 0.758353 42.3352C0.758353 42.3352 0.920857 50.2015 2.92507 54.0294C4.47186 56.9786 6.52423 57.8753 7.39693 58.1221C7.82426 60.7643 8.50437 63.569 7.66175 65.6575C6.42793 68.6186 5.55522 71.8507 5.55522 71.8507C5.55522 71.8507 9.40115 73.9331 10.7915 74.4748C12.1938 74.9924 12.6271 75.51 12.6271 75.51L12.4586 77.6286C12.4586 77.6286 14.0175 79.1092 16.0397 79.3439C18.0379 79.6388 19.4403 80.4152 20.2287 80.9328C21.0232 81.4745 20.8426 83.3102 20.8426 83.3102L2.75655 81.8296L4.34547 88.7089L10.015 89.5816L11.5017 93.2711C11.5017 93.2711 16.6416 96.1299 23.8098 97.8814C30.954 99.6328 43.6232 99.6328 43.6232 99.6328C43.6232 99.6328 41.5107 103.725 44.0506 106.265C46.5784 108.805 50.1655 108.203 50.1655 108.203V113.68H57.9416V109.058C57.9416 109.058 61.8176 109.317 62.6964 109.142C63.5751 108.968 64.2552 108.264 64.2552 108.264V113.68L74.6073 113.903L74.0476 107.144L80.8005 107.06V113.951H92.9401C92.9401 113.951 93.1929 108.709 92.3202 105.218C91.4475 101.727 89.5275 98.5735 89.2567 98.5073C88.9979 98.411 108.92 97.0989 115.721 90.5627C122.534 83.9843 119.645 77.5323 117.653 72.1937ZM7.12007 54.9202C7.096 55.5581 7.15017 56.2322 7.21035 56.9424C6.53025 56.5873 5.10382 55.5762 3.72555 52.5669C1.79356 48.3719 2.32922 42.4435 2.32922 42.4435C2.32922 42.4435 2.49774 42.3352 3.11767 42.3352C3.73157 42.3352 5.21216 42.9611 5.21216 42.9611L12.0132 45.4889C12.0072 45.4889 7.30063 51.6099 7.12007 54.9202ZM34.7578 80.3189C34.529 81.0712 34.4749 81.7032 34.5892 82.0102C34.7156 82.3051 34.7578 83.6412 34.7578 83.6412L30.8697 83.244C30.8697 83.244 31.7484 82.8889 31.5017 82.3653C31.279 81.8477 30.5146 81.6611 30.5146 81.4926C30.5146 81.318 30.3521 80.3851 30.7493 79.2957C31.1466 78.1642 32.26 76.0878 32.26 76.0878L34.6434 76.3707C34.6494 76.3707 34.9985 79.5666 34.7578 80.3189ZM43.4306 84.2672C43.4306 84.2672 44.1288 83.6894 43.9663 83.3403C43.7797 82.9972 42.5158 83.1056 41.4625 82.8949C40.4093 82.6602 39.7773 82.0162 39.5847 81.2037C39.4162 80.3911 40.012 76.491 40.012 76.491L41.3422 76.5512C41.3422 76.5512 42.5098 63.5269 42.5098 60.4814C42.5098 57.4721 42.6181 55.9433 42.3292 54.9563C42.0403 53.9632 41.8116 53.2711 41.8116 53.2711L41.932 51.9409C41.932 51.9409 42.6843 52.5067 43.5089 52.5729C43.876 52.5849 44.177 52.5368 44.3936 52.4706V64.8811C44.3756 65.2121 44.3395 65.507 44.3094 65.7176C43.9663 68.095 44.5501 74.6253 44.2552 76.1781C43.9723 77.767 44.0807 80.7763 44.0807 80.7763L44.4057 81.1194V84.2672H43.4306ZM60.1264 84.4898C58.5134 84.5019 57.5805 84.5019 57.5805 84.5019C57.5805 84.5019 57.8513 83.4546 57.2314 83.3704C56.6115 83.2861 54.7878 83.4546 54.3485 82.4917C53.9151 81.5407 54.4448 80.0481 54.4448 80.0481L55.5763 79.8976L56.8041 71.9409C56.8041 71.9409 59.8556 71.5196 59.9398 70.7312C60.0361 69.9427 60.3792 66.7228 60.3792 66.7228L60.1264 84.4898Z" fill="url(#paint0_linear_174_15672)"/>
</g>
<defs>
<linearGradient id="paint0_linear_174_15672" x1="59.9982" y1="6.05469" x2="59.9982" y2="113.951" gradientUnits="userSpaceOnUse">
<stop stop-color="#398FC0"/>
<stop offset="1" stop-color="#2A6C92"/>
</linearGradient>
<clipPath id="clip0_174_15672">
<rect width="120" height="120" fill="white"/>
</clipPath>
</defs>
</svg>
