<svg width="30" height="40" viewBox="0 0 30 40" fill="none" xmlns="http://www.w3.org/2000/svg">
<path d="M15 0C6.73 0 0 6.77667 0 15.1083C0 26.9467 13.59 39.17 14.1683 39.6833C14.4067 39.895 14.7033 40 15 40C15.2967 40 15.5933 39.895 15.8317 39.685C16.41 39.17 30 26.9467 30 15.1083C30 6.77667 23.27 0 15 0ZM15 23.3333C10.405 23.3333 6.66667 19.595 6.66667 15C6.66667 10.405 10.405 6.66667 15 6.66667C19.595 6.66667 23.3333 10.405 23.3333 15C23.3333 19.595 19.595 23.3333 15 23.3333Z" fill="#398FC0"/>
</svg>
