<svg width="38" height="30" viewBox="0 0 38 30" fill="none" xmlns="http://www.w3.org/2000/svg">
<path d="M37.6801 3.92375C37.5172 2.83484 36.9696 1.84032 36.1364 1.12048C35.3033 0.400642 34.2398 0.00312806 33.1388 0H4.86132C3.7603 0.00312806 2.69683 0.400642 1.86371 1.12048C1.03058 1.84032 0.482947 2.83484 0.320068 3.92375L19.0001 16.0113L37.6801 3.92375Z" fill="#398FC0"/>
<path d="M19.6787 18.5502C19.4765 18.681 19.2408 18.7505 19 18.7505C18.7592 18.7505 18.5235 18.681 18.3212 18.5502L0.25 6.8577V25.3889C0.251323 26.6115 0.737575 27.7836 1.60207 28.6481C2.46656 29.5126 3.63868 29.9989 4.86125 30.0002H33.1388C34.3613 29.9989 35.5334 29.5126 36.3979 28.6481C37.2624 27.7836 37.7487 26.6115 37.75 25.3889V6.85645L19.6787 18.5502Z" fill="#398FC0"/>
</svg>
