<svg width="92" height="92" viewBox="0 0 92 92" fill="none" xmlns="http://www.w3.org/2000/svg">
<circle cx="46" cy="46" r="46" fill="#398FC0" fill-opacity="0.15"/>
<circle cx="46" cy="46" r="38" fill="#398FC0" fill-opacity="0.3"/>
<circle cx="46" cy="46" r="30" fill="#398FC0"/>
<g clip-path="url(#clip0_109_1923)">
<path d="M45.3956 49.4506C42.8232 47.3353 41.1055 44.7251 40.2025 43.24L39.5289 41.9701C39.7644 41.7174 41.5605 39.7941 42.3388 38.7506C43.3169 37.4403 41.8988 36.2569 41.8988 36.2569C41.8988 36.2569 37.9085 32.266 36.9991 31.4744C36.0897 30.6816 35.0429 31.1219 35.0429 31.1219C33.1316 32.3569 31.1501 33.4306 31.0313 38.5944C31.0268 43.4289 34.6968 48.4154 38.6655 52.2757C42.6406 56.6354 48.0983 61.005 53.3748 61C58.538 60.8823 59.6115 58.9011 60.8464 56.9898C60.8464 56.9898 61.287 55.9438 60.4951 55.0335C59.7026 54.1236 55.7112 50.1325 55.7112 50.1325C55.7112 50.1325 54.5286 48.7141 53.218 49.693C52.2413 50.4231 50.4873 52.0471 50.0648 52.4409C50.0656 52.4422 47.1316 50.8781 45.3956 49.4506Z" fill="#F6F6F6"/>
</g>
<defs>
<clipPath id="clip0_109_1923">
<rect width="30" height="30" fill="white" transform="translate(31 31)"/>
</clipPath>
</defs>
</svg>
