<svg width="110" height="110" viewBox="0 0 110 110" fill="none" xmlns="http://www.w3.org/2000/svg">
<g clip-path="url(#clip0_174_15646)">
<path d="M13.1055 83.7066V93.6719H19.5508V83.7066C25.3849 82.7585 32.4414 78.7495 32.4414 64.668C32.4414 51.2108 26.3108 32.4414 16.3281 32.4414C6.34541 32.4414 0 51.2108 0 64.668C0 78.7495 7.27139 82.7585 13.1055 83.7066Z" fill="url(#paint0_linear_174_15646)"/>
<path d="M93.6719 46.3839V38.3146C99.2163 36.5133 103.34 30.2588 103.34 22.7732C103.34 15.1162 98.789 -0.000244141 90.4492 -0.000244141C82.1094 -0.000244141 77.5586 15.1162 77.5586 22.7732C77.5586 30.2586 81.6821 36.5131 87.2266 38.3146V45.332H55V38.3148C60.5445 36.5135 64.668 30.259 64.668 22.7734C64.668 15.1164 60.1171 -2.92969e-05 51.7773 -2.92969e-05C43.4375 -2.92969e-05 38.8867 15.1164 38.8867 22.7734C38.8867 30.2588 43.0102 36.5133 48.5547 38.3148V45.332H35.718C37.1121 49.5326 38.0362 53.9818 38.5084 58.2226H71.1133C74.6664 58.2226 77.5586 61.1149 77.5586 64.6679C77.5586 68.221 74.6664 71.1133 71.1133 71.1133H64.668C46.8993 71.1133 32.4414 85.786 32.4414 103.555V110H71.1133V103.555C71.1133 96.4453 76.8945 90.4492 84.0039 90.4492H87.2266C99.6641 90.4492 110 80.3281 110 67.8906C110 57.7076 102.957 49.1781 93.6719 46.3839Z" fill="url(#paint1_linear_174_15646)"/>
</g>
<defs>
<linearGradient id="paint0_linear_174_15646" x1="16.2207" y1="32.4414" x2="16.2207" y2="93.6719" gradientUnits="userSpaceOnUse">
<stop stop-color="#398FC0"/>
<stop offset="1" stop-color="#2A6C92"/>
</linearGradient>
<linearGradient id="paint1_linear_174_15646" x1="71.2207" y1="-0.000244141" x2="71.2207" y2="110" gradientUnits="userSpaceOnUse">
<stop stop-color="#398FC0"/>
<stop offset="1" stop-color="#2A6C92"/>
</linearGradient>
<clipPath id="clip0_174_15646">
<rect width="110" height="110" fill="white"/>
</clipPath>
</defs>
</svg>
