<svg width="22" height="22" viewBox="0 0 22 22" fill="none" xmlns="http://www.w3.org/2000/svg">
<rect width="20" height="20" rx="1" fill="#7BB71F"/>
<rect x="2.5" y="2.5" width="19" height="19" rx="0.5" stroke="#7BB71F"/>
<path d="M10.7993 6.87313V6.6255L9.23043 6.59619L9.20068 6.87313L10.7691 6.90244C10.7857 6.90244 10.7993 6.88932 10.7993 6.87313Z" fill="white"/>
<path d="M6.33289 4.79053V15.2092C6.33289 15.3299 6.43089 15.4279 6.55164 15.4279H13.4488C13.5696 15.4279 13.6676 15.3299 13.6676 15.2092V4.79053C13.6676 4.66978 13.5696 4.57178 13.4488 4.57178H6.55164C6.43045 4.57178 6.33289 4.66934 6.33289 4.79053ZM12.2348 9.45778C12.5336 9.45778 12.7768 9.70103 12.7768 9.99984C12.7768 10.2987 12.5336 10.5419 12.2348 10.5419C11.9359 10.5419 11.6931 10.2991 11.6931 9.99984C11.6931 9.70059 11.9359 9.45778 12.2348 9.45778ZM8.7632 6.6254C8.7632 6.36771 8.97276 6.15859 9.23045 6.15859H10.7696C11.0273 6.15859 11.2368 6.36815 11.2368 6.6254V6.87259C11.2368 7.13028 11.0273 7.3394 10.7696 7.3394H9.23045C8.97276 7.3394 8.7632 7.12984 8.7632 6.87259V6.6254Z" fill="white"/>
</svg>
