<svg width="110" height="110" viewBox="0 0 110 110" fill="none" xmlns="http://www.w3.org/2000/svg">
<g clip-path="url(#clip0_174_15650)">
<path d="M109.381 35.819L92.1934 11.7567C91.5059 10.863 90.4747 10.313 89.3747 10.313H20.6254C19.5254 10.313 18.4941 10.863 17.8066 11.7567L0.619311 35.819C0.413063 36.4377 0.206815 37.0565 0.000567416 37.6752C-0.0681819 45.3064 6.11926 51.5626 13.7504 51.5626C17.8754 51.5626 21.5191 49.7751 24.0628 46.8876C26.6066 49.7751 30.2503 51.5626 34.3752 51.5626C38.5002 51.5626 42.1439 49.7751 44.6876 46.8876C47.2314 49.7751 50.8751 51.5626 55 51.5626C59.125 51.5626 62.7687 49.7751 65.3124 46.8876C67.8561 49.7751 71.4999 51.5626 75.6248 51.5626C79.7498 51.5626 83.3935 49.7751 85.9372 46.8876C88.4809 49.7751 92.1247 51.5626 96.2496 51.5626C103.881 51.5626 110.068 45.3064 109.999 37.6752C109.793 37.0565 109.587 36.4377 109.381 35.819Z" fill="url(#paint0_linear_174_15650)"/>
<path d="M96.2496 58.4376C92.599 58.4376 89.0447 57.4614 85.9372 55.6602C79.7223 59.2557 71.5274 59.2557 65.3124 55.6602C59.0975 59.2557 50.8957 59.2557 44.6876 55.6602C38.4796 59.2557 30.2709 59.2557 24.0628 55.6602C18.8997 58.6576 12.5061 59.0426 6.87549 57.097V92.8123C6.87549 96.6073 9.95546 99.6872 13.7504 99.6872H68.7499V65.3126H89.3747V99.6872H96.2496C100.045 99.6872 103.125 96.6073 103.125 92.8123V57.1795C100.938 57.9564 98.6352 58.4376 96.2496 58.4376ZM48.1251 85.9374H20.6254V65.3126H48.1251V85.9374Z" fill="url(#paint1_linear_174_15650)"/>
</g>
<defs>
<linearGradient id="paint0_linear_174_15650" x1="55" y1="10.313" x2="55" y2="51.5626" gradientUnits="userSpaceOnUse">
<stop stop-color="#398FC0"/>
<stop offset="1" stop-color="#2A6C92"/>
</linearGradient>
<linearGradient id="paint1_linear_174_15650" x1="55" y1="55.6602" x2="55" y2="99.6872" gradientUnits="userSpaceOnUse">
<stop stop-color="#398FC0"/>
<stop offset="1" stop-color="#2A6C92"/>
</linearGradient>
<clipPath id="clip0_174_15650">
<rect width="110" height="110" fill="white"/>
</clipPath>
</defs>
</svg>
