<svg width="40" height="40" viewBox="0 0 40 40" fill="none" xmlns="http://www.w3.org/2000/svg">
<path d="M19.1942 24.6007C15.7643 21.7804 13.4741 18.3002 12.2701 16.32L11.3719 14.6268C11.686 14.2899 14.0807 11.7255 15.1185 10.3342C16.4227 8.58707 14.5318 7.00916 14.5318 7.00916C14.5318 7.00916 9.21142 1.68802 7.9989 0.632511C6.78637 -0.424476 5.3906 0.162575 5.3906 0.162575C2.84216 1.8092 0.200246 3.24081 0.0417534 10.1258C0.0358422 16.5719 4.92916 23.2205 10.2208 28.3676C15.5208 34.1805 22.7978 40.0067 29.8332 40C36.7175 39.843 38.1487 37.2015 39.7953 34.653C39.7953 34.653 40.3828 33.2584 39.3269 32.0447C38.2703 30.8315 32.9484 25.51 32.9484 25.51C32.9484 25.51 31.3716 23.6188 29.6241 24.924C28.3218 25.8975 25.9832 28.0628 25.4198 28.5878C25.4209 28.5897 21.5088 26.5041 19.1942 24.6007Z" fill="#398FC0"/>
</svg>
