<svg width="22" height="22" viewBox="0 0 22 22" fill="none" xmlns="http://www.w3.org/2000/svg">
<rect width="20" height="20" rx="1" fill="#7BB71F"/>
<rect x="2.5" y="2.5" width="19" height="19" rx="0.5" stroke="#7BB71F"/>
<g clip-path="url(#clip0_132_14261)">
<path d="M11.1666 15.8332H10.5833V12.9166H13.4999C13.6546 12.9166 13.803 12.8551 13.9124 12.7457C14.0218 12.6363 14.0833 12.4879 14.0833 12.3332C14.0833 12.1785 14.0218 12.0301 13.9124 11.9207C13.803 11.8113 13.6546 11.7499 13.4999 11.7499H10.5833V8.24989H16.4166C16.5093 8.24861 16.6004 8.22548 16.6824 8.18237C16.7645 8.13926 16.8353 8.07739 16.8889 8.00179C16.9426 7.92619 16.9776 7.839 16.9912 7.7473C17.0049 7.6556 16.9966 7.56198 16.9673 7.47406C16.3957 6.11041 15.4235 4.95249 14.1793 4.15354C12.9352 3.35459 11.4777 2.95229 9.99992 2.99989C8.52209 2.95221 7.06461 3.35448 5.82045 4.15344C4.57628 4.95239 3.6041 6.11036 3.03259 7.47406C3.00334 7.56198 2.99522 7.65556 3.00889 7.74721C3.02256 7.83886 3.05764 7.92599 3.11127 8.00156C3.1649 8.07712 3.23558 8.13898 3.31759 8.18213C3.39959 8.22527 3.49061 8.24849 3.58326 8.24989H9.41659V11.7499H6.49992C6.34521 11.7499 6.19684 11.8113 6.08745 11.9207C5.97805 12.0301 5.91659 12.1785 5.91659 12.3332C5.91659 12.4879 5.97805 12.6363 6.08745 12.7457C6.19684 12.8551 6.34521 12.9166 6.49992 12.9166H9.41659V15.8332H8.83326C8.67855 15.8332 8.53018 15.8947 8.42078 16.0041C8.31138 16.1135 8.24992 16.2618 8.24992 16.4166C8.24992 16.5713 8.31138 16.7196 8.42078 16.829C8.53018 16.9384 8.67855 16.9999 8.83326 16.9999H11.1666C11.3213 16.9999 11.4697 16.9384 11.5791 16.829C11.6885 16.7196 11.7499 16.5713 11.7499 16.4166C11.7499 16.2618 11.6885 16.1135 11.5791 16.0041C11.4697 15.8947 11.3213 15.8332 11.1666 15.8332Z" fill="white"/>
<path d="M6.47025 14.482C6.43155 14.3658 6.35725 14.2647 6.25789 14.1931C6.15853 14.1215 6.03915 14.083 5.91667 14.083H4.16667V11.1663C4.16667 11.0116 4.10521 10.8633 3.99581 10.7539C3.88642 10.6445 3.73804 10.583 3.58333 10.583C3.42862 10.583 3.28025 10.6445 3.17085 10.7539C3.06146 10.8633 3 11.0116 3 11.1663V16.4163C3 16.5711 3.06146 16.7194 3.17085 16.8288C3.28025 16.9382 3.42862 16.9997 3.58333 16.9997C3.73804 16.9997 3.88642 16.9382 3.99581 16.8288C4.10521 16.7194 4.16667 16.5711 4.16667 16.4163V15.2497H5.49608L5.94642 16.6007C5.99732 16.746 6.10282 16.8659 6.24056 16.9348C6.3783 17.0037 6.53747 17.0163 6.68433 16.9699C6.75704 16.9457 6.82427 16.9075 6.88218 16.8573C6.94009 16.8071 6.98755 16.746 7.02184 16.6775C7.05613 16.6089 7.07658 16.5343 7.08203 16.4579C7.08747 16.3815 7.07781 16.3047 7.05358 16.232L6.47025 14.482Z" fill="white"/>
<path d="M16.4167 10.583C16.262 10.583 16.1136 10.6445 16.0042 10.7539C15.8948 10.8633 15.8333 11.0116 15.8333 11.1663V14.083H14.0833C13.9609 14.083 13.8415 14.1215 13.7421 14.1931C13.6428 14.2647 13.5685 14.3658 13.5298 14.482L12.9464 16.232C12.9222 16.3047 12.9125 16.3815 12.918 16.4579C12.9234 16.5343 12.9439 16.6089 12.9782 16.6775C13.0125 16.746 13.0599 16.8071 13.1178 16.8573C13.1757 16.9075 13.243 16.9457 13.3157 16.9699C13.4625 17.0173 13.6221 17.0051 13.7601 16.9361C13.898 16.867 14.0034 16.7466 14.0536 16.6007L14.5039 15.2497H15.8333V16.4163C15.8333 16.5711 15.8948 16.7194 16.0042 16.8288C16.1136 16.9382 16.262 16.9997 16.4167 16.9997C16.5714 16.9997 16.7198 16.9382 16.8292 16.8288C16.9385 16.7194 17 16.5711 17 16.4163V11.1663C17 11.0116 16.9385 10.8633 16.8292 10.7539C16.7198 10.6445 16.5714 10.583 16.4167 10.583Z" fill="white"/>
</g>
<defs>
<clipPath id="clip0_132_14261">
<rect width="14" height="14" fill="white" transform="translate(3 3)"/>
</clipPath>
</defs>
</svg>
