<svg width="22" height="22" fill="none" xmlns="http://www.w3.org/2000/svg"><rect width="20" height="20" rx="1" fill="#398FC0"/><rect x="2.5" y="2.5" width="19" height="19" rx=".5" stroke="#398FC0"/><path d="M11.982 12.724h-1.225a3.196 3.196 0 01-2.752 2.752V17h3.977v-4.276zm-4.387.138a.549.549 0 10-.002-1.097.549.549 0 00.002 1.097z" fill="#fff"/><path d="M7.595 14.682a2.371 2.371 0 002.368-2.368 2.371 2.371 0 00-2.368-2.369 2.371 2.371 0 00-2.369 2.369 2.371 2.371 0 002.369 2.368zm0-3.736a1.37 1.37 0 011.368 1.368 1.37 1.37 0 01-1.368 1.368 1.37 1.37 0 01-1.369-1.368 1.37 1.37 0 011.369-1.368z" fill="#fff"/><path d="M7.184 9.152V7.927H3v3.977h1.432a3.196 3.196 0 012.752-2.752zm5.618-2.95c.43.134.77.474.905.905H17V3h-4.198v3.202zm-1.726 1.725H8.005v1.225a3.196 3.196 0 012.752 2.752h1.225V8.832a1.384 1.384 0 01-.905-.905zM3 3h4.184v4.107H3V3zm14 4.927h-3.293c-.135.43-.475.77-.905.905v3.072H17V7.927zm-9.816 7.549a3.195 3.195 0 01-2.752-2.752H3V17h4.184v-1.524zm5.618-2.752H17V17h-4.198v-4.276zm-.41-5.764a.558.558 0 100 1.116.558.558 0 000-1.116zm-4.387.147h3.071c.135-.43.475-.77.906-.905V3H8.005v4.107z" fill="#fff"/></svg>