<svg width="22" height="22" fill="none" xmlns="http://www.w3.org/2000/svg"><rect width="20" height="20" rx="1" fill="#398FC0"/><rect x="2.5" y="2.5" width="19" height="19" rx=".5" stroke="#398FC0"/><path d="M16.714 15.307l-.913-.912a.456.456 0 10-.646.645l.134.134H6.537l.134-.134a.456.456 0 10-.646-.645l-.913.912a.464.464 0 00-.134.323c0 .114.047.236.134.323l.913.913a.456.456 0 10.646-.645l-.134-.134h8.752l-.133.134a.456.456 0 10.645.645l.913-.913a.46.46 0 000-.646zM5.112 12.569l-.134.133V4.56l.134.133a.456.456 0 10.646-.645l-.914-.913a.456.456 0 00-.645 0l-.913.913a.456.456 0 10.645.645l.134-.133v8.143l-.134-.133a.456.456 0 10-.645.645l.913.913a.456.456 0 00.645 0l.913-.913a.456.456 0 10-.645-.646zm9.453-5.917h2.283V3.457A.457.457 0 0016.39 3h-6.239v3.652h2.283a.457.457 0 010 .913h-2.283v1.37a.457.457 0 01-.913 0V3H7.261a.457.457 0 00-.457.457v9.434c0 .252.205.457.457.457h1.978v-2.283a.457.457 0 01.913 0v2.283h6.24a.457.457 0 00.456-.457V7.565h-2.283a.457.457 0 110-.913z" fill="#fff"/></svg>