<svg width="110" height="110" fill="none" xmlns="http://www.w3.org/2000/svg"><path d="M27.5 24.063a10.312 10.312 0 10-13.75 9.68v59.07a3.437 3.437 0 006.875 0v-59.07a10.312 10.312 0 006.875-9.68z" fill="url(#paint0_linear_174_15642)"/><path d="M85.938 13.75H51.562a17.208 17.208 0 00-17.187 17.188v44.687a10.312 10.312 0 006.875 9.68v4.07a6.875 6.875 0 006.875 6.875H55a6.875 6.875 0 006.875-6.875v-3.438h13.75v3.438A6.875 6.875 0 0082.5 96.25h6.875a6.875 6.875 0 006.875-6.875v-4.07a10.31 10.31 0 006.875-9.68V30.937A17.206 17.206 0 0085.937 13.75zM48.124 72.188a3.438 3.438 0 116.875 0 3.438 3.438 0 01-6.875 0zm34.375 0a3.438 3.438 0 116.875 0 3.438 3.438 0 01-6.875 0zM96.25 55a3.438 3.438 0 01-3.438 3.438H44.688A3.438 3.438 0 0141.25 55V34.375a6.875 6.875 0 016.875-6.875h41.25a6.875 6.875 0 016.875 6.875V55z" fill="url(#paint1_linear_174_15642)"/><defs><linearGradient id="paint0_linear_174_15642" x1="17.188" y1="13.707" x2="17.188" y2="96.25" gradientUnits="userSpaceOnUse"><stop stop-color="#398FC0"/><stop offset="1" stop-color="#2A6C92"/></linearGradient><linearGradient id="paint1_linear_174_15642" x1="68.75" y1="13.75" x2="68.75" y2="96.25" gradientUnits="userSpaceOnUse"><stop stop-color="#398FC0"/><stop offset="1" stop-color="#2A6C92"/></linearGradient></defs></svg>