<svg width="30" height="30" fill="none" xmlns="http://www.w3.org/2000/svg"><g clip-path="url(#clip0_174_15690)"><path d="M17.446 8.35a3.482 3.482 0 01-1.04-2.49c0-.942.37-1.826 1.04-2.49L20.503.34a1.172 1.172 0 011.65 1.664L19.505 4.63h4.047a6.454 6.454 0 016.445 6.44L30 14.296c0 .647-.524 1.172-1.171 1.173h-.001a1.172 1.172 0 01-1.172-1.171l-.003-3.227a4.107 4.107 0 00-4.101-4.098h-4.166l2.767 2.742a1.172 1.172 0 11-1.65 1.664l-3.057-3.03zm11.19 12.774c-1.637-1.578-3.008-2.49-4.315-2.867-1.802-.52-3.47-.048-4.96 1.407l-.006.007-1.586 1.573c-.985-.553-2.9-1.77-4.994-3.865l-.155-.154c-2.08-2.08-3.306-4.006-3.863-4.995l1.572-1.585.007-.006c1.454-1.49 1.928-3.158 1.407-4.96-.378-1.307-1.289-2.678-2.867-4.315A4.438 4.438 0 005.826.003a4.436 4.436 0 00-3.139 1.138l-.033.03-.046.043C.888 2.934-.014 5.343 0 8.18c.024 4.818 2.672 10.327 7.083 14.738a28.545 28.545 0 002.81 2.446 1.172 1.172 0 101.425-1.86A26.226 26.226 0 018.74 21.26c-3.984-3.984-6.375-8.88-6.396-13.093-.011-2.184.646-4.007 1.9-5.274l.009-.008a2.108 2.108 0 012.936.106c3.034 3.146 2.814 4.632 1.473 6.007L6.49 11.186c-.34.343-.435.86-.238 1.302.055.124 1.389 3.072 4.712 6.395l.154.154c3.322 3.322 6.27 4.656 6.394 4.711a1.17 1.17 0 001.302-.239l2.189-2.172c1.374-1.34 2.86-1.56 6.006 1.474.824.794.87 2.084.106 2.936l-.008.009c-1.257 1.244-3.06 1.9-5.22 1.9h-.054c-1.727-.009-3.727-.482-5.783-1.369a1.172 1.172 0 10-.928 2.152c2.377 1.025 4.63 1.55 6.699 1.56h.066c2.807 0 5.192-.9 6.899-2.607l.043-.046.03-.034a4.438 4.438 0 001.138-3.139 4.441 4.441 0 00-1.361-3.05z" fill="#F6F6F6"/></g><defs><clipPath id="clip0_174_15690"><path fill="#fff" d="M0 0h30v30H0z"/></clipPath></defs></svg>