<svg width="30" height="30" fill="none" xmlns="http://www.w3.org/2000/svg"><path d="M17.283 5.87H4.893a.978.978 0 000 1.956h12.39a.978.978 0 000-1.956zm0 3.913H4.893a.978.978 0 000 1.956h12.39a.978.978 0 000-1.956zm0 3.913H4.893a.978.978 0 000 1.956h12.39a.978.978 0 100-1.956z" fill="#F6F6F6"/><path d="M29.14 9.338a2.938 2.938 0 00-4.15 0l-2.816 2.816v-9.22A2.938 2.938 0 0019.24 0H2.935A2.938 2.938 0 000 2.935v18.26c0 .256.102.507.287.692l7.826 7.826a.982.982 0 00.692.287H19.24a2.938 2.938 0 002.934-2.935v-6.61l6.967-6.967a2.938 2.938 0 000-4.15zM3.34 22.174h3.508a.98.98 0 01.979.978v3.508L3.34 22.174zm16.878 4.891a.98.98 0 01-.978.979H9.783v-4.892a2.938 2.938 0 00-2.935-2.935H1.957V2.935a.98.98 0 01.978-.979H19.24a.98.98 0 01.978.979V14.11l-5.988 5.988a1.006 1.006 0 00-.23.36l-1.55 4.319c-.28.776.473 1.53 1.25 1.251l4.319-1.551a1.01 1.01 0 00.36-.23l1.839-1.837v4.654zm-4.312-3.907l-.914.328.329-.913.585.585zm1.782-.984l-1.383-1.383 8.4-8.4 1.382 1.384-8.399 8.399zm10.07-10.07l-.287.287-1.384-1.383.287-.287a.98.98 0 011.383 1.384z" fill="#F6F6F6"/></svg>