<svg width="60" height="60" fill="none" xmlns="http://www.w3.org/2000/svg"><g opacity=".4" filter="url(#filter0_f_132_15583)"><path fill-rule="evenodd" clip-rule="evenodd" d="M30 49.531c10.787 0 19.531-8.744 19.531-19.531 0-10.787-8.744-19.531-19.531-19.531-10.787 0-19.531 8.744-19.531 19.531 0 10.787 8.744 19.531 19.531 19.531zm-6.876-23.078h4.056v-3.478c0-4.034 2.462-6.229 6.06-6.229a33.323 33.323 0 013.636.186v4.216h-2.481c-1.958 0-2.337.93-2.337 2.295v3.01h4.68l-.61 4.727h-4.07v12.074H27.18V31.18h-4.056v-4.727z" fill="#398FC0"/></g><path fill-rule="evenodd" clip-rule="evenodd" d="M30 44.531c10.787 0 19.531-8.744 19.531-19.531 0-10.787-8.744-19.531-19.531-19.531-10.787 0-19.531 8.744-19.531 19.531 0 10.787 8.744 19.531 19.531 19.531zm-6.876-23.078h4.056v-3.478c0-4.034 2.462-6.229 6.06-6.229a33.323 33.323 0 013.636.186v4.216h-2.481c-1.958 0-2.337.93-2.337 2.295v3.01h4.68l-.61 4.727h-4.07v12.074H27.18V26.18h-4.056v-4.727z" fill="#398FC0"/><defs><filter id="filter0_f_132_15583" x="0" y="0" width="60" height="60" filterUnits="userSpaceOnUse" color-interpolation-filters="sRGB"><feFlood flood-opacity="0" result="BackgroundImageFix"/><feBlend in="SourceGraphic" in2="BackgroundImageFix" result="shape"/><feGaussianBlur stdDeviation="5" result="effect1_foregroundBlur_132_15583"/></filter></defs></svg>