<svg width="40" height="40" fill="none" xmlns="http://www.w3.org/2000/svg"><path d="M20 24.102a4.102 4.102 0 100-8.204 4.102 4.102 0 000 8.204z" fill="#398FC0"/><path d="M20 .469C9.213.469.469 9.213.469 20 .469 30.787 9.213 39.531 20 39.531c10.787 0 19.531-8.744 19.531-19.531C39.531 9.213 30.787.469 20 .469zm12.067 24.495c-.094 1.857-.616 3.688-1.969 5.027-1.366 1.351-3.206 1.855-5.08 1.948H14.982c-1.875-.093-3.715-.596-5.081-1.948-1.353-1.339-1.875-3.17-1.969-5.027v-9.928c.094-1.857.616-3.688 1.969-5.027 1.366-1.351 3.206-1.855 5.08-1.948h10.035c1.875.093 3.715.596 5.081 1.948 1.354 1.339 1.875 3.17 1.969 5.027v9.928z" fill="#398FC0"/><path d="M24.89 10.323a237.986 237.986 0 00-9.78 0c-1.272.035-2.714.352-3.62 1.32-.942 1.006-1.298 2.222-1.334 3.582-.063 2.386 0 9.55 0 9.55.041 1.36.392 2.576 1.334 3.582.906.968 2.348 1.285 3.62 1.32 2.444.067 7.336.067 9.78 0 1.273-.035 2.715-.352 3.62-1.32.942-1.006 1.298-2.222 1.334-3.582v-9.55c-.036-1.36-.392-2.576-1.333-3.582-.907-.969-2.349-1.285-3.62-1.32zM20 26.357a6.357 6.357 0 110-12.714 6.357 6.357 0 010 12.714zm6.384-11.402a1.272 1.272 0 11.001-2.544 1.272 1.272 0 010 2.544z" fill="#398FC0"/></svg>