<svg width="30" height="30" fill="none" xmlns="http://www.w3.org/2000/svg"><circle cx="15" cy="15" r="15" fill="url(#paint0_linear_272_2160)"/><path d="M17.316 15a2.316 2.316 0 11-4.632 0 2.316 2.316 0 014.632 0z" fill="#fff"/><path d="M18.912 8h-7.824A3.092 3.092 0 008 11.088v7.824A3.092 3.092 0 0011.088 22h7.824A3.092 3.092 0 0022 18.912v-7.824A3.092 3.092 0 0018.912 8zM15 18.86A3.865 3.865 0 0111.14 15 3.865 3.865 0 0115 11.14 3.865 3.865 0 0118.86 15 3.865 3.865 0 0115 18.86zm4.427-7.514a.772.772 0 110-1.544.772.772 0 010 1.544z" fill="#fff"/><defs><linearGradient id="paint0_linear_272_2160" x1="20.4" y1=".9" x2="7.2" y2="30" gradientUnits="userSpaceOnUse"><stop stop-color="#9E32C3"/><stop offset=".243" stop-color="#BC33AF"/><stop offset=".519" stop-color="#E7476E"/><stop offset=".764" stop-color="#FF8847"/><stop offset="1" stop-color="#FFC751"/></linearGradient></defs></svg>