<svg width="60" height="60" fill="none" xmlns="http://www.w3.org/2000/svg"><g opacity=".4" filter="url(#filter0_f_132_15588)" fill="#398FC0"><path d="M30 34.102a4.102 4.102 0 100-8.204 4.102 4.102 0 000 8.204z"/><path d="M30 10.469c-10.787 0-19.531 8.744-19.531 19.531 0 10.787 8.744 19.531 19.531 19.531 10.787 0 19.531-8.744 19.531-19.531 0-10.787-8.744-19.531-19.531-19.531zm12.067 24.495c-.094 1.857-.615 3.688-1.969 5.027-1.366 1.351-3.206 1.855-5.08 1.948H24.982c-1.875-.093-3.715-.596-5.081-1.948-1.354-1.339-1.875-3.17-1.969-5.027v-9.928c.094-1.857.616-3.688 1.969-5.027 1.366-1.352 3.206-1.855 5.08-1.948h10.035c1.875.093 3.715.596 5.081 1.948 1.354 1.339 1.875 3.17 1.969 5.027v9.928z"/><path d="M34.89 20.323a237.986 237.986 0 00-9.78 0c-1.272.035-2.714.352-3.62 1.32-.942 1.006-1.298 2.222-1.334 3.581-.063 2.387 0 9.551 0 9.551.042 1.36.392 2.576 1.334 3.582.906.968 2.348 1.285 3.62 1.32 2.444.067 7.336.067 9.78 0 1.273-.035 2.715-.352 3.62-1.32.943-1.006 1.298-2.222 1.334-3.582v-9.55c-.036-1.36-.392-2.576-1.333-3.582-.907-.969-2.349-1.285-3.62-1.32zM30 36.357a6.357 6.357 0 110-12.714 6.357 6.357 0 010 12.714zm6.384-11.402a1.272 1.272 0 11.001-2.544 1.272 1.272 0 010 2.544z"/></g><path d="M30 29.102a4.102 4.102 0 100-8.204 4.102 4.102 0 000 8.204z" fill="#398FC0"/><path d="M30 5.469c-10.787 0-19.531 8.744-19.531 19.531 0 10.787 8.744 19.531 19.531 19.531 10.787 0 19.531-8.744 19.531-19.531 0-10.787-8.744-19.531-19.531-19.531zm12.067 24.495c-.094 1.857-.615 3.688-1.969 5.027-1.366 1.351-3.206 1.855-5.08 1.948H24.982c-1.875-.093-3.715-.596-5.081-1.948-1.354-1.339-1.875-3.17-1.969-5.027v-9.928c.094-1.857.616-3.688 1.969-5.027 1.366-1.351 3.206-1.855 5.08-1.948h10.035c1.875.093 3.715.596 5.081 1.948 1.354 1.339 1.875 3.17 1.969 5.027v9.928z" fill="#398FC0"/><path d="M34.89 15.323a237.986 237.986 0 00-9.78 0c-1.272.035-2.714.352-3.62 1.32-.942 1.006-1.298 2.222-1.334 3.581-.063 2.387 0 9.551 0 9.551.042 1.36.392 2.576 1.334 3.582.906.968 2.348 1.285 3.62 1.32 2.444.067 7.336.067 9.78 0 1.273-.035 2.715-.352 3.62-1.32.943-1.006 1.298-2.222 1.334-3.582v-9.55c-.036-1.36-.392-2.576-1.333-3.582-.907-.969-2.349-1.285-3.62-1.32zM30 31.357a6.357 6.357 0 110-12.714 6.357 6.357 0 010 12.714zm6.384-11.402a1.272 1.272 0 11.001-2.544 1.272 1.272 0 010 2.544z" fill="#398FC0"/><defs><filter id="filter0_f_132_15588" x="0" y="0" width="60" height="60" filterUnits="userSpaceOnUse" color-interpolation-filters="sRGB"><feFlood flood-opacity="0" result="BackgroundImageFix"/><feBlend in="SourceGraphic" in2="BackgroundImageFix" result="shape"/><feGaussianBlur stdDeviation="5" result="effect1_foregroundBlur_132_15588"/></filter></defs></svg>