<svg width="120" height="120" fill="none" xmlns="http://www.w3.org/2000/svg"><g clip-path="url(#clip0_174_15672)"><path d="M117.653 72.194c-2.023-5.315-2.101-9.076-1.583-11.261.517-2.173 1.655-2.871 1.655-2.871s-.078-.975-1.053-.975c-.951 0-3.738.283-3.738.283s2.167-4.207 2.528-10.84c.349-6.632-.181-10.557-.181-11.435 0-.879-.343-1.752-1.396-2.624-1.047-.873-2.088-2.612-1.571-2.883.518-.26 1.216.186 1.397-.343.072-.211.03-.53 0-.777-.031-.397-.091-.704-.091-.704.127-.096.512-.036.518-.295-.301-.518-.783-.939-.783-.939s.079-.692-.18-1.21c-.247-.53-1.3-1.396-2.432-1.137-1.137.259-2.118.198-2.19 1.86-.055 1.01.625 1.023.529 1.553-.096.53-.054 1.21-.349 1.588-.361.41-2.359-1.86-3.762-2.365-1.384-.53-2.527-.53-2.527-.53l-1.656 1.385s-5.5-1.655-8.468-1.74c-2.967-.096-3.755.355-3.232 1.565.524 1.222 1.59 2.444.963 2.985-.608.506-1.222 1.21-.608 1.631.608.458 1.39.717 1.39.717s-2.696 3.49 2.625 3.135c5.326-.355 6.638-1.847 6.638-1.847s1.391.186 1.836.53c.421.342 1.228.962 1.481 1.047.27.108.8 1.047 2.798 1.131 2.004.096 2.534-.162 2.883.445.361.59 1.842 2.01 1.661 3.058-.18 1.047-2.04 1.68-2.834 3.045-1.8 3.094-.837 6.934-5.303 11.628-1.029 1.072-2.516 2.787-3.647 4.364-1.138 1.565-1.571 3.22-1.571 3.22s1.57 1.493 3.828 2.714c2.275 1.222 3.587 2.456 3.587 2.456l-.175 1.469s4.111 1.131 3.064 2.882c-1.059 1.752-4.189 1.752-4.189 1.752l.09 2.353 3.316-.084s-.09 4.454-11.784 6.362c-9.227 1.528-25.718 1.901-33.951 1.986l.47-29.413.041-1.469s2.36-1.131 1.493-2.624a18.92 18.92 0 00-1.445-2.095l.554-35.239 1.005-.541-1.583-6.194-1.583 6.157 1.216.644-.313 20.35-.33 14.577s-.344.692-1.138 1.059c-.765.343-1.12-.102-1.12-.102s-.602-2.083-2.72-3.913c-2.089-1.86-3.395-2.274-3.395-2.274l.175-1.132s1.24.692 1.57.259c.35-.44.29-1.053.025-1.655-.247-.608-.205-1.054-.283-1.312-.072-.271.608-.103.608-.452 0-.343-1.047-1.553-1.047-1.553s-.163-1.221-.536-1.847c-.361-.632-.855-.777-2.528-.35-1.65.452-2.179 1.156-1.992 2.366.168 1.216.511 1.733.168 2.01-.355.259-1.053.776-.614 1.216.446.44 1.132.794 1.132.794l-.253 1.475-2.185.44s.53-1.385-.096-1.752a7.148 7.148 0 01-.933-.62l.024-28.589.993-.457-1.577-6.187-1.576 6.15 1.01.542-.047 28.836s-.68.68-.404 1.378c.133.385.307.776.428 1.138v1.408c-.325.837-.963 2.082-.963 2.082s-.957-3.226-2.095-4.11c-1.137-.855-2.624-1.204-2.624-1.204v-1.673s.873-.259 1.228-.692c.355-.452.084-1.048-.265-1.583-.35-.518-.265-1.397-.62-2.516-.343-1.15-.692-.879-.692-.879s-.259-1.047-1.745-.8c-1.487.27-1.999.969-1.908 2.54.078 1.565-.53 1.565-.44 2.353.066.794.789 1.577 1.126 1.577.36 0 .433.692-.175 1.137-.602.44-3.864 1.547-3.864 1.547s-.415 3.515-.235 6.404c.169 2.883.777 3.906 1.475 4.352.692.457 1.047.716 1.047.716s-.608 2.082-.776 3.9c-.169 1.841-.169 2.45-.169 2.45l-1.576-.687s-.44-1.577-.44-2.353c0-.813-.09-2.365-.168-2.973-.079-.602-.44-4.364-.079-5.856.35-1.475-.18-3.04-.096-3.557.096-.542.163-1.505-.536-2.378-.698-.86-.95-1.131-1.733-1.498-.794-.32-1.487-.247-1.655-1.024-.18-.788-.09-1.564-.09-1.564s.95.162 1.221-1.343c.26-1.462.44-2.064-.53-2.516 0 0 .374-.999-.409-2.046-.782-1.06-1.775-.836-1.775-.836l-.602-.175s-1.474.175-2.01 1.15c-.524.95-.24 1.348-.24 1.974 0 .602-.801 1.342-.115 1.86.325.234-.169 1.396.626 1.655l.77.27s.361 1.294-.174 1.132c-.524-.187-1.662-1.053-3.13-.885-1.487.199-2.708.199-3.575.608-.885.44-.361.614-1.667.614h-2.883s-.602-.614-.861-.614c-.277 0-3.587-.162-3.587-.162l-.789.36-2.269-.108-1.137-.337s-.445-1.059-.698-1.059c0 0 .77-8.276 3.394-11.345 2.618-3.052 4.02-2.805 6.807-3.395 2.799-.62 5.08-1.474 6.29-2.798a8.899 8.899 0 001.757-2.787s.277-1.107-.234-.283c-1.517 2.384-2.185 2.991-3.148 3.46-3.75 1.825-5.357 1.187-8.493 2.234-3.147 1.035-4.188 2.173-5.675 5.405-1.487 3.226-2.179 9.69-2.179 9.69s-.794.439-.794 1.125c0 .704-.434 1.926-.097 2.197.355.27.632.072.632.072s.163 7.867 2.167 11.694c1.547 2.95 3.6 3.846 4.472 4.093.427 2.642 1.107 5.447.265 7.535-1.234 2.962-2.107 6.194-2.107 6.194s3.846 2.082 5.236 2.624c1.403.517 1.836 1.035 1.836 1.035l-.168 2.119s1.559 1.48 3.58 1.715a10.3 10.3 0 014.19 1.589c.794.541.614 2.377.614 2.377L2.757 81.83l1.588 6.879 5.67.873 1.487 3.69s5.14 2.858 12.308 4.61c7.144 1.75 19.813 1.75 19.813 1.75s-2.112 4.093.428 6.633c2.527 2.54 6.114 1.938 6.114 1.938v5.477h7.777v-4.622s3.876.259 4.754.084c.88-.174 1.56-.878 1.56-.878v5.416l10.351.223-.56-6.759 6.754-.084v6.891h12.14s.252-5.242-.62-8.733c-.873-3.491-2.793-6.645-3.064-6.71-.26-.097 19.663-1.41 26.464-7.945 6.813-6.579 3.924-13.03 1.932-18.37zM7.12 54.92c-.024.638.03 1.312.09 2.022-.68-.355-2.106-1.366-3.484-4.375-1.932-4.195-1.397-10.123-1.397-10.123s.169-.109.789-.109c.614 0 2.094.626 2.094.626l6.801 2.528c-.006 0-4.712 6.12-4.893 9.431zm27.638 25.4c-.229.752-.283 1.384-.169 1.691.127.295.169 1.631.169 1.631l-3.888-.397s.878-.355.632-.879c-.223-.517-.987-.704-.987-.872 0-.175-.163-1.108.234-2.197.398-1.132 1.511-3.208 1.511-3.208l2.383.283c.006 0 .355 3.196.115 3.948zm8.673 3.948s.698-.578.535-.927c-.186-.343-1.45-.234-2.504-.445-1.053-.235-1.685-.879-1.877-1.691-.169-.813.427-4.713.427-4.713l1.33.06s1.168-13.024 1.168-16.07c0-3.009.108-4.538-.18-5.525-.29-.993-.518-1.685-.518-1.685l.12-1.33s.752.566 1.577.632c.367.012.668-.036.885-.102v12.41a9.672 9.672 0 01-.085.837c-.343 2.377.241 8.907-.054 10.46-.283 1.589-.174 4.598-.174 4.598l.325.343v3.148h-.975zm16.695.223c-1.613.012-2.545.012-2.545.012s.27-1.047-.35-1.132c-.62-.084-2.443.085-2.883-.878-.433-.951.097-2.444.097-2.444l1.131-.15 1.228-7.957s3.052-.421 3.136-1.21c.096-.788.44-4.008.44-4.008l-.254 17.767z" fill="url(#paint0_linear_174_15672)"/></g><defs><linearGradient id="paint0_linear_174_15672" x1="59.998" y1="6.055" x2="59.998" y2="113.951" gradientUnits="userSpaceOnUse"><stop stop-color="#398FC0"/><stop offset="1" stop-color="#2A6C92"/></linearGradient><clipPath id="clip0_174_15672"><path fill="#fff" d="M0 0h120v120H0z"/></clipPath></defs></svg>