<svg width="30" height="30" fill="none" xmlns="http://www.w3.org/2000/svg"><path d="M22.031 1.816c-3.196 0-5.567 1.963-7.031 4.747-1.464-2.784-3.835-4.747-7.031-4.747C3.363 1.816 0 5.684 0 10.401c0 6.238 5.951 10.154 14.421 17.565a.88.88 0 001.158 0C24.04 20.562 30 16.64 30 10.401c0-4.717-3.363-8.585-7.969-8.585zM15 26.14C7.2 19.363 1.758 15.599 1.758 10.4c0-3.892 2.67-6.827 6.21-6.827 3.414 0 5.53 3.161 6.185 5.508.236.856 1.455.86 1.694 0 .647-2.316 2.738-5.508 6.184-5.508 3.541 0 6.211 2.935 6.211 6.827 0 5.201-5.45 8.97-13.242 15.738z" fill="#F6F6F6"/></svg>