<svg width="58" height="50" fill="none" xmlns="http://www.w3.org/2000/svg"><g opacity=".4" filter="url(#filter0_f_132_15571)" fill="#398FC0"><path d="M47.68 13.924A4.605 4.605 0 0043.14 10H14.86a4.605 4.605 0 00-4.54 3.924L29 26.01l18.68-12.087z"/><path d="M29.679 28.55a1.25 1.25 0 01-1.358 0L10.25 16.858v18.53A4.616 4.616 0 0014.861 40H43.14a4.616 4.616 0 004.611-4.611V16.856L29.679 28.55z"/></g><path d="M47.68 8.924A4.605 4.605 0 0043.14 5H14.86a4.605 4.605 0 00-4.54 3.924L29 21.01 47.68 8.924z" fill="#398FC0"/><path d="M29.679 23.55a1.25 1.25 0 01-1.358 0L10.25 11.858v18.53A4.616 4.616 0 0014.861 35H43.14a4.616 4.616 0 004.611-4.611V11.856L29.679 23.55z" fill="#398FC0"/><defs><filter id="filter0_f_132_15571" x="-1" y="-5" width="60" height="60" filterUnits="userSpaceOnUse" color-interpolation-filters="sRGB"><feFlood flood-opacity="0" result="BackgroundImageFix"/><feBlend in="SourceGraphic" in2="BackgroundImageFix" result="shape"/><feGaussianBlur stdDeviation="5" result="effect1_foregroundBlur_132_15571"/></filter></defs></svg>