<svg width="92" height="92" fill="none" xmlns="http://www.w3.org/2000/svg"><circle cx="46" cy="46" r="46" fill="#398FC0" fill-opacity=".15"/><circle cx="46" cy="46" r="38" fill="#398FC0" fill-opacity=".3"/><circle cx="46" cy="46" r="30" fill="#398FC0"/><g clip-path="url(#clip0_109_1923)"><path d="M45.396 49.45c-2.573-2.115-4.29-4.725-5.194-6.21l-.673-1.27c.235-.253 2.031-2.176 2.81-3.22.978-1.31-.44-2.493-.44-2.493s-3.99-3.991-4.9-4.783c-.91-.792-1.956-.352-1.956-.352-1.911 1.235-3.893 2.309-4.012 7.472-.004 4.835 3.666 9.821 7.635 13.682 3.975 4.36 9.432 8.729 14.709 8.724 5.163-.118 6.236-2.099 7.471-4.01 0 0 .441-1.046-.35-1.957-.793-.91-4.785-4.9-4.785-4.9s-1.182-1.419-2.493-.44c-.977.73-2.73 2.354-3.153 2.748 0 .001-2.933-1.563-4.67-2.99z" fill="#F6F6F6"/></g><defs><clipPath id="clip0_109_1923"><path fill="#fff" transform="translate(31 31)" d="M0 0h30v30H0z"/></clipPath></defs></svg>