<svg width="110" height="110" fill="none" xmlns="http://www.w3.org/2000/svg"><g clip-path="url(#clip0_174_15646)"><path d="M13.105 83.707v9.965h6.446v-9.965c5.834-.948 12.89-4.957 12.89-19.039 0-13.457-6.13-32.227-16.113-32.227S0 51.211 0 64.668c0 14.081 7.271 18.09 13.105 19.039z" fill="url(#paint0_linear_174_15646)"/><path d="M93.672 46.384v-8.07c5.544-1.8 9.668-8.055 9.668-15.54C103.34 15.115 98.789 0 90.45 0c-8.34 0-12.891 15.116-12.891 22.773 0 7.486 4.123 13.74 9.668 15.542v7.017H55v-7.017c5.544-1.801 9.668-8.056 9.668-15.542C64.668 15.116 60.118 0 51.778 0S38.886 15.116 38.886 22.773c0 7.486 4.123 13.74 9.668 15.542v7.017H35.718c1.394 4.2 2.318 8.65 2.79 12.89h32.605a6.454 6.454 0 016.446 6.446 6.454 6.454 0 01-6.446 6.445h-6.445c-17.769 0-32.227 14.673-32.227 32.442V110h38.672v-6.445c0-7.11 5.781-13.106 12.89-13.106h3.224C99.664 90.45 110 80.33 110 67.891c0-10.183-7.043-18.713-16.328-21.507z" fill="url(#paint1_linear_174_15646)"/></g><defs><linearGradient id="paint0_linear_174_15646" x1="16.221" y1="32.441" x2="16.221" y2="93.672" gradientUnits="userSpaceOnUse"><stop stop-color="#398FC0"/><stop offset="1" stop-color="#2A6C92"/></linearGradient><linearGradient id="paint1_linear_174_15646" x1="71.221" y1="0" x2="71.221" y2="110" gradientUnits="userSpaceOnUse"><stop stop-color="#398FC0"/><stop offset="1" stop-color="#2A6C92"/></linearGradient><clipPath id="clip0_174_15646"><path fill="#fff" d="M0 0h110v110H0z"/></clipPath></defs></svg>