<svg width="22" height="22" fill="none" xmlns="http://www.w3.org/2000/svg"><rect width="20" height="20" rx="1" fill="#7BB71F"/><rect x="2.5" y="2.5" width="19" height="19" rx=".5" stroke="#7BB71F"/><path d="M10.8 6.873v-.248l-1.57-.029-.03.277 1.57.03a.03.03 0 00.03-.03z" fill="#fff"/><path d="M6.333 4.79v10.42c0 .12.098.218.219.218h6.897a.22.22 0 00.219-.219V4.791a.219.219 0 00-.22-.22H6.553a.218.218 0 00-.22.22zm5.902 4.668a.543.543 0 11-.002 1.085.543.543 0 01.002-1.085zM8.763 6.625c0-.257.21-.466.467-.466h1.54c.257 0 .467.21.467.466v.248c0 .257-.21.466-.467.466H9.23a.468.468 0 01-.467-.466v-.248z" fill="#fff"/></svg>