<svg width="110" height="110" fill="none" xmlns="http://www.w3.org/2000/svg"><g clip-path="url(#clip0_174_15650)"><path d="M109.381 35.819L92.193 11.757c-.687-.894-1.718-1.444-2.818-1.444h-68.75c-1.1 0-2.13.55-2.818 1.444L.619 35.819l-.618 1.856c-.07 7.631 6.118 13.888 13.75 13.888 4.124 0 7.768-1.788 10.312-4.675 2.544 2.887 6.187 4.675 10.312 4.675 4.125 0 7.769-1.788 10.313-4.675 2.543 2.887 6.187 4.675 10.312 4.675 4.125 0 7.769-1.788 10.312-4.675 2.544 2.887 6.188 4.675 10.313 4.675 4.125 0 7.769-1.788 10.312-4.675 2.544 2.887 6.188 4.675 10.313 4.675 7.631 0 13.818-6.257 13.749-13.888l-.618-1.856z" fill="url(#paint0_linear_174_15650)"/><path d="M96.25 58.438a20.57 20.57 0 01-10.313-2.778c-6.215 3.596-14.41 3.596-20.625 0-6.215 3.596-14.416 3.596-20.624 0-6.208 3.596-14.417 3.596-20.625 0-5.163 2.998-11.557 3.383-17.188 1.437v35.715a6.877 6.877 0 006.875 6.875h55V65.313h20.625v34.374h6.875a6.878 6.878 0 006.875-6.875V57.18c-2.187.777-4.49 1.259-6.875 1.259zm-48.125 27.5h-27.5V65.312h27.5v20.624z" fill="url(#paint1_linear_174_15650)"/></g><defs><linearGradient id="paint0_linear_174_15650" x1="55" y1="10.313" x2="55" y2="51.563" gradientUnits="userSpaceOnUse"><stop stop-color="#398FC0"/><stop offset="1" stop-color="#2A6C92"/></linearGradient><linearGradient id="paint1_linear_174_15650" x1="55" y1="55.66" x2="55" y2="99.687" gradientUnits="userSpaceOnUse"><stop stop-color="#398FC0"/><stop offset="1" stop-color="#2A6C92"/></linearGradient><clipPath id="clip0_174_15650"><path fill="#fff" d="M0 0h110v110H0z"/></clipPath></defs></svg>