<svg width="60" height="60" fill="none" xmlns="http://www.w3.org/2000/svg"><g opacity=".6" clip-path="url(#clip0_132_15551)" filter="url(#filter0_f_132_15551)"><path d="M29.194 34.6c-3.43-2.82-5.72-6.3-6.924-8.28l-.898-1.693c.314-.337 2.709-2.901 3.747-4.293 1.304-1.747-.587-3.325-.587-3.325s-5.32-5.321-6.533-6.377-2.608-.47-2.608-.47c-2.549 1.647-5.19 3.079-5.35 9.964-.005 6.446 4.888 13.095 10.18 18.242C25.52 44.18 32.798 50.007 39.833 50c6.885-.157 8.316-2.798 9.962-5.347 0 0 .588-1.395-.468-2.608-1.057-1.214-6.379-6.535-6.379-6.535s-1.576-1.891-3.324-.586c-1.302.974-3.64 3.139-4.204 3.664 0 .002-3.911-2.084-6.226-3.987z" fill="#398FC0"/></g><g clip-path="url(#clip1_132_15551)"><path d="M29.194 29.6c-3.43-2.82-5.72-6.3-6.924-8.28l-.898-1.693c.314-.337 2.709-2.901 3.747-4.293 1.304-1.747-.587-3.325-.587-3.325s-5.32-5.321-6.533-6.376c-1.213-1.057-2.608-.47-2.608-.47-2.549 1.646-5.19 3.078-5.35 9.963-.005 6.446 4.888 13.095 10.18 18.242C25.52 39.18 32.798 45.007 39.833 45c6.885-.157 8.316-2.798 9.962-5.347 0 0 .588-1.395-.468-2.608-1.057-1.214-6.379-6.535-6.379-6.535s-1.576-1.891-3.324-.586c-1.302.974-3.64 3.139-4.204 3.664 0 .002-3.911-2.084-6.226-3.987z" fill="#398FC0"/></g><defs><clipPath id="clip0_132_15551"><path fill="#fff" transform="translate(10 10)" d="M0 0h40v40H0z"/></clipPath><clipPath id="clip1_132_15551"><path fill="#fff" transform="translate(10 5)" d="M0 0h40v40H0z"/></clipPath><filter id="filter0_f_132_15551" x="0" y="0" width="60" height="60" filterUnits="userSpaceOnUse" color-interpolation-filters="sRGB"><feFlood flood-opacity="0" result="BackgroundImageFix"/><feBlend in="SourceGraphic" in2="BackgroundImageFix" result="shape"/><feGaussianBlur stdDeviation="5" result="effect1_foregroundBlur_132_15551"/></filter></defs></svg>