<svg width="40" height="40" fill="none" xmlns="http://www.w3.org/2000/svg"><path d="M19.194 24.6c-3.43-2.82-5.72-6.3-6.924-8.28l-.898-1.693c.314-.337 2.709-2.902 3.746-4.293 1.305-1.747-.586-3.325-.586-3.325S9.212 1.688 7.999.633C6.786-.424 5.39.163 5.39.163 2.842 1.809.2 3.24.04 10.126.037 16.572 4.93 23.22 10.222 28.368 15.52 34.18 22.798 40.007 29.833 40c6.885-.157 8.316-2.798 9.962-5.347 0 0 .588-1.395-.468-2.608-1.057-1.214-6.379-6.535-6.379-6.535s-1.576-1.891-3.324-.586c-1.302.974-3.64 3.139-4.204 3.664 0 .002-3.911-2.084-6.226-3.987z" fill="#398FC0"/></svg>