<svg width="22" height="22" fill="none" xmlns="http://www.w3.org/2000/svg"><rect width="20" height="20" rx="1" fill="#7BB71F"/><rect x="2.5" y="2.5" width="19" height="19" rx=".5" stroke="#7BB71F"/><g clip-path="url(#clip0_132_14261)" fill="#fff"><path d="M11.167 15.833h-.584v-2.916H13.5a.583.583 0 000-1.167h-2.917v-3.5h5.834a.589.589 0 00.55-.776A7.3 7.3 0 0010 3a7.3 7.3 0 00-6.967 4.474.59.59 0 00.55.776h5.834v3.5H6.5a.583.583 0 100 1.167h2.917v2.916h-.584a.583.583 0 000 1.167h2.334a.583.583 0 000-1.167zM6.47 14.482a.583.583 0 00-.553-.399h-1.75v-2.917a.583.583 0 00-1.167 0v5.25a.583.583 0 101.167 0V15.25h1.33l.45 1.35a.593.593 0 00.737.37.583.583 0 00.37-.738l-.584-1.75zm9.947-3.899a.583.583 0 00-.584.583v2.917h-1.75a.584.584 0 00-.553.399l-.584 1.75a.583.583 0 101.108.369l.45-1.351h1.33v1.166a.583.583 0 101.166 0v-5.25a.584.584 0 00-.583-.583z"/></g><defs><clipPath id="clip0_132_14261"><path fill="#fff" transform="translate(3 3)" d="M0 0h14v14H0z"/></clipPath></defs></svg>