<svg width="30" height="30" fill="none" xmlns="http://www.w3.org/2000/svg"><g clip-path="url(#clip0_401_337)"><circle cx="15" cy="15" r="15" fill="#fff"/><path fill-rule="evenodd" clip-rule="evenodd" d="M15 30c8.284 0 15-6.716 15-15 0-8.284-6.716-15-15-15C6.716 0 0 6.716 0 15c0 8.284 6.716 15 15 15zM9.72 12.276h3.114V9.605c0-3.098 1.891-4.784 4.654-4.784.933-.003 1.865.044 2.793.143V8.2h-1.906c-1.503 0-1.794.715-1.794 1.763v2.312h3.594l-.468 3.63H16.58v9.273h-3.747v-9.273H9.719v-3.63z" fill="#1877F2"/></g><defs><clipPath id="clip0_401_337"><path fill="#fff" d="M0 0h30v30H0z"/></clipPath></defs></svg>