<svg width="5354" height="3315" fill="none" xmlns="http://www.w3.org/2000/svg"><g filter="url(#filter0_b_650_942)"><path fill-rule="evenodd" clip-rule="evenodd" d="M5354 0H0v3315h2098.65v-41.67l168.94-232.42h70.32v229.49h59.57v44.6h147.71c-8.83-25.59-13.53-55.36-13.53-88.55 0-116.21 57.61-190.43 148.43-190.43 90.82 0 148.44 74.22 148.44 190.43 0 33.19-4.7 62.96-13.53 88.55h147.71v-41.67l168.95-232.42h70.31v229.49h59.57v44.6H5354V0zM2752.4 3315c10.72-22.99 16.56-53.02 16.56-88.55 0-85.93-34.18-139.65-88.87-139.65-54.68 0-88.86 53.72-88.86 139.65 0 35.53 5.84 65.56 16.56 88.55h144.61zm-471.13-212.57L2159.2 3270.4h122.07v-167.97zm864.06 0l-122.07 167.97h122.07v-167.97z" fill="#000" fill-opacity=".75"/></g><defs><filter id="filter0_b_650_942" x="-10" y="-10" width="5374" height="3335" filterUnits="userSpaceOnUse" color-interpolation-filters="sRGB"><feFlood flood-opacity="0" result="BackgroundImageFix"/><feGaussianBlur in="BackgroundImage" stdDeviation="5"/><feComposite in2="SourceAlpha" operator="in" result="effect1_backgroundBlur_650_942"/><feBlend in="SourceGraphic" in2="effect1_backgroundBlur_650_942" result="shape"/></filter></defs></svg>