<svg viewBox="0 0 246 72" xmlns="http://www.w3.org/2000/svg" xmlns:xlink="http://www.w3.org/1999/xlink"><style>:root&gt;svg{display:none}:root&gt;svg:target{display:block}</style><svg fill="none" viewBox="0 0 30 30" id="facebook" xmlns="http://www.w3.org/2000/svg"><g clip-path="url(#aclip0_401_337)"><circle cx="15" cy="15" r="15" fill="#fff"/><path fill-rule="evenodd" clip-rule="evenodd" d="M15 30c8.284 0 15-6.716 15-15 0-8.284-6.716-15-15-15C6.716 0 0 6.716 0 15c0 8.284 6.716 15 15 15zM9.72 12.276h3.114V9.605c0-3.098 1.891-4.784 4.654-4.784.933-.003 1.865.044 2.793.143V8.2h-1.906c-1.503 0-1.794.715-1.794 1.763v2.312h3.594l-.468 3.63H16.58v9.273h-3.747v-9.273H9.719v-3.63z" fill="#1877F2"/></g><defs><clipPath id="aclip0_401_337"><path fill="#fff" d="M0 0h30v30H0z"/></clipPath></defs></svg><svg fill="none" viewBox="0 0 246 72" id="logo" xmlns="http://www.w3.org/2000/svg"><path d="M60.5 45.4V21.5h12.3c1 0 2 .2 2.9.5.9.3 1.6.8 2.2 1.3.6.6 1.1 1.3 1.4 2.1.3.8.5 1.8.5 2.9 0 1.1-.2 2-.5 2.9-.3.8-.8 1.6-1.4 2.2-.6.6-1.3 1.1-2.2 1.4-.9.3-1.8.5-2.9.5h-4.2c-.8 0-1.5.1-2.3.2-.8.1-1.5.4-2.2.8v9.2h-3.6v-.1zm12.2-13.7c2.3 0 3.5-1.1 3.5-3.4 0-1.2-.3-2.1-.9-2.6-.6-.5-1.4-.7-2.6-.7H64v7.6c.7-.4 1.5-.7 2.2-.8.8-.1 1.5-.2 2.3-.2h4.2v.1zm24.1 14.2c-3.4 0-6.1-.9-7.9-2.6-1.8-1.7-2.8-4.1-2.8-7.3V21.5h3.5v14.6c0 2.1.6 3.6 1.9 4.7 1.3 1.1 3 1.6 5.4 1.6 2.3 0 4.1-.5 5.4-1.6 1.3-1.1 1.9-2.6 1.9-4.7V21.5h3.5v14.6c0 3.1-.9 5.6-2.8 7.3-2 1.7-4.6 2.5-8.1 2.5zm22.8-.5h-3.5V21.5h3.5v9.8c.5-.2 1-.4 1.5-.5.5-.1 1-.1 1.5-.1.3 0 .8 0 1.5.1s1.4.2 2.1.2c.8.1 1.5.2 2.3.2.7.1 1.4.1 1.9.1s1 0 1.6-.1c.6-.1 1.1-.2 1.6-.5v-9.2h3.5v23.9h-3.5V34.3c-.5.2-1.1.4-1.6.5-.6.1-1.1.1-1.6.1s-1.2 0-1.9-.1-1.5-.2-2.3-.2c-.8 0-1.5-.2-2.1-.2-.6-.1-1.1-.1-1.5-.1-.5 0-1 0-1.5.1s-1 .3-1.5.5v10.5zm26.5 0V21.5h3.4v23.9h-3.4zm23.8 0h-4.1l-9.9-23.9h3.8l8.2 20 8.2-20h3.8l-10 23.9zm19.2 0h-3.5V21.5h3.5v17.8l12.1-17.8h4.2l-7.8 11.2 4.3 6.4c.7 1.1 1.4 1.8 2 2.2.6.4 1.2.5 1.7.5h1v3.6h-1.2c-.6 0-1.1 0-1.6-.1s-1-.2-1.5-.5c-.5-.2-1-.6-1.5-1.1-.5-.5-1-1.2-1.6-2.1l-3.6-5.8-6.5 9.6zm31-24.3h3.8l11.5 24.3h-3.9l-1.6-3.5h-7.3c-1.1 0-2.1.1-2.9.2-.8.1-1.6.3-2.2.6-.6.2-1.1.5-1.4.8-.4.3-.6.5-.7.8l-.6 1.1H211L221.4 24l-1.3-2.9zm8.2 17.3l-5.2-10.1-5.3 11.4c.4-.4 1.1-.7 2.1-.9 1-.3 2.3-.4 4-.4h4.4zm-180.993-.554s-.129 0-.129-.129c-.128-.129-.385-.257-.642-.386a2.423 2.423 0 00-1.029-.257h-1.414c-1.028 0-2.185.257-3.342.514a18.357 18.357 0 01-3.728.386h-.9c-.257 0-.643-.128-1.029-.128h-1.928c-1.285 0-2.314.128-3.342.128-.771 0-1.543 0-2.186-.128h-.128l.771-.772a.981.981 0 00.643.257c.771.129 1.671.257 2.442.129 1.029 0 2.186-.129 3.343-.257.643 0 1.285-.129 1.8-.129.642 0 1.285 0 1.928.129h1.928c.643 0 1.286-.129 1.928-.129 1.286-.128 2.314-.385 3.343-.514.9-.129 1.8-.257 2.314-.257h.9-.772c-.643 0-1.414 0-2.314.129-1.028.128-2.185.257-3.342.257h-1.928c-.643 0-1.286 0-1.929-.129-.642 0-1.285-.129-1.928-.129H34.71c-1.286 0-2.314.129-3.343.129-.77 0-1.413 0-2.185-.129h-.128l.128-.128.9-.9c.257.129.514.129.771.257a7.786 7.786 0 002.443 0c.9-.128 2.057-.385 3.214-.385h1.67c.258 0 .643.128.9.128.258 0 .643.129.9.129.643 0 1.286.128 1.929.128h1.8c.642 0 1.156-.128 1.67-.128.515 0 1.029-.129 1.543-.257.9-.129 1.671-.258 2.186-.258h.899-.899c-.515 0-1.414 0-2.314.129-.514 0-1.029.129-1.543.129H41.78c-.643 0-1.285-.129-1.8-.258-.257 0-.642-.128-.9-.128-.257 0-.642-.129-.9-.257-.642-.129-1.285-.129-1.928-.129-1.285 0-2.313.257-3.213.257-.772.129-1.414 0-2.186 0h-.128l.771-.771c.257.129.514.257.771.257.772.129 1.543.129 2.443 0 .9-.129 2.057-.386 3.085-.514.643-.129 1.157-.129 1.671-.129h1.8c2.314.257 4.5.257 6.813.257.771 0 1.543-.128 2.185-.514.13 0 .386-.128.515-.257l.128-.128-.128.128c-.129.129-.386.257-.514.257-.772.257-1.415.386-2.186.257a65.023 65.023 0 01-6.813-.771l-.9-.129h-.9c-.643 0-1.285 0-1.8.129a100.7 100.7 0 00-3.085.386h-2.186l.644-.643c.257.128.514.128.771.257.771.129 1.671.129 2.571 0 1.028-.129 2.185-.386 3.342-.643.643-.128 1.157-.128 1.8-.128h5.913c.642 0 1.156-.129 1.8-.257l.77-.129c.258 0 .515-.128.772-.257a15.675 15.675 0 002.185-.9c.257-.128.514-.257.643-.386l.128-.128c-.128 0-.385.128-.642.257-.772.257-1.414.643-2.186.771-.257 0-.514.129-.771.129l-1.285-.386c-.515 0-1.157.129-1.8.129h-3.6c-.257 0-.642 0-.9-.129h-1.028c-.643 0-1.285 0-1.928.129-1.286.128-2.314.385-3.343.385-.77.129-1.414 0-2.185-.128h-.129l1.157-1.157c.258.128.515.128.772.257.771.129 1.671 0 2.57-.128 1.03-.13 2.186-.515 3.343-.643a4.25 4.25 0 011.8 0h.514l.514.128c.386 0 .643.129 1.029.129 1.285.128 2.57 0 3.856-.129 1.157-.128 2.186-.514 3.343-.771.77-.257 1.414-.643 2.185-.9.257-.128.514-.257.643-.386l.128-.128-.128.128c-.129 0-.386.129-.643.258-.771.385-1.414.642-2.185.77-1.029.258-2.186.515-3.343.644-1.285.128-2.57 0-3.728-.129-.257-.128-.514-.128-.771-.257h-.514c-.129 0-.386 0-.514-.129h-2.057c-1.286.129-2.314.386-3.343.515a6.238 6.238 0 01-2.185 0h-.129l.772-.772c.257.129.514.129.771.257h1.029c.385 0 .77-.128 1.156-.257.772-.257 1.8-.514 2.829-.771.514-.129 1.028-.257 1.542-.257h1.543c1.157 0 2.185.128 3.342.257.9.128 1.928.128 2.957.128.386 0 .771 0 1.157-.128.257 0 .643-.129.771-.257.129 0 .386-.129.514-.257l.129-.129-.129.129h-1.028c-.257.128-.643.128-.771.128-.386.129-.772.129-1.157.129-.9 0-1.929-.129-2.828-.386-1.029-.128-2.186-.385-3.214-.643-.257 0-.515 0-.772-.128h-.9c-.642 0-1.156.128-1.67.257-1.029.257-2.057.514-2.829.643-.385 0-.771.128-1.028.128h-.771l.128-.128c.771-.771 1.414-1.414 2.185-2.057h.129c.129 0 .257.128.386.128.257 0 .642.13 1.028 0 .386 0 .771-.128 1.157-.128.771-.129 1.671-.386 2.571-.643.643.129 1.029.129 1.543.129h1.414c1.928 0 3.856 0 5.785-.129a2.42 2.42 0 001.028-.257c.257 0 .514-.128.771-.257l.257-.129.129-.128h.129-.13l-.128.128-.385.258c-.257 0-.514.128-.772.128-.385 0-.77.129-1.028.129-1.928 0-3.728 0-5.656-.257h-1.543c-.514 0-1.028 0-1.543.128-1.028.129-1.928.386-2.57.514-.258 0-.643.129-1.029.129h-.771l1.028-.9.129-.129c.128.129.257.258.514.258.257.128.643.128.9.128.385 0 .642 0 1.028-.128.771-.129 1.414-.386 2.186-.515.385 0 .77-.128 1.285-.128h1.286a32.77 32.77 0 005.013 0c.257 0 .643-.129.9-.129a.982.982 0 00.643-.257l.257-.128.128-.129h.129-.514c-.257 0-.514.129-.772.129h-.9c-1.67 0-3.213-.129-4.884-.386h-2.7c-.771.129-1.671.257-2.185.386h-.772c-.128 0-.385 0-.514-.129l1.414-1.285.129.128c.128 0 .257.129.385.129.258 0 .515.128.772.128s.642 0 .9-.128c.642-.129 1.285-.386 2.056-.643.772-.257 1.414-.386 2.186-.386h4.37c.258 0 .515 0 .772-.128.128 0 .386-.129.643-.257.128 0 .257-.129.385-.258h.129-.129s-.128.129-.385.129c-.386.129-.9.257-1.415.257-.642 0-1.285-.128-2.056-.257l-1.157-.129c-.386 0-.772-.128-1.157-.128-.772 0-1.671 0-2.443.257-.771.129-1.414.386-1.928.386H45.25l.386-.386 1.157-.9.128.129c.129.128.386.128.643.257h.771c.514-.129 1.029-.257 1.543-.514.514-.258 1.028-.258 1.542-.258h.772c.257 0 .643 0 .771.13.514 0 1.029.128 1.543 0 .385 0 .771-.13 1.028-.387.129 0 .129-.128.257-.128h.129c-.257 0-.386 0-.514.128-.386.129-.772.129-1.029.129-.514 0-1.028-.129-1.414-.257-.257 0-.514-.129-.771-.257-.129 0-.257 0-.514-.129h-.515c-1.285 0-2.442.386-3.213.514h-.515s-.128 0-.257-.128l1.543-1.286.129.129c.128.128.257.128.385.257h.514c.386 0 .772-.129 1.157-.257.386-.129.772-.386 1.157-.643.643-.514 1.286-.9 1.8-1.543l.771-.77-.771.77c-.643.515-1.285.9-1.928 1.286-.386.257-.772.386-1.157.514-.257.129-.643.129-1.029.129h-.385s-.129 0-.129-.129c.771-.514 1.414-1.028 1.928-1.414l1.672-1.285.642-.514-.257.514c-.385.257-1.028.642-1.8 1.157a60.985 60.985 0 00-2.7 1.928c-.642.386-1.156.771-1.799 1.285v-.128c0-.129 0-.257.129-.386.257-.386.643-.771.9-1.028l1.157-1.157c.77-.772 1.414-1.414 2.185-2.186a4.84 4.84 0 01.643-.77l.257-.258-.257.257c-.129.129-.386.386-.643.771-.771.772-1.414 1.415-2.314 2.057-.514.386-.9.772-1.285 1.029-.386.257-.772.642-1.157 1.028-.129.129-.258.386-.386.643v.9l-.771.642v-.771c.128-.514.257-.9.642-1.414.386-.514.772-1.028 1.029-1.414.771-1.028 1.542-1.928 2.185-2.7.257-.385.514-.77.771-.9l.258-.385-.258.128c-.128.258-.385.515-.77.9l-2.443 2.443c-.386.514-.772.9-1.286 1.414-.386.514-.643 1.028-.771 1.543 0 .257-.129.514 0 .77v.386c0 .129 0 .129.128.258l.129.257-1.286 1.028-.128-.128v-.9c0-.515 0-1.029.257-1.543.129-.643.386-1.286.643-1.8.514-1.285 1.028-2.442 1.414-3.47.386-1.029.386-2.057.386-2.057s-.258.642-.772 1.542-1.157 2.057-1.8 3.343c-.257.642-.642 1.156-.9 1.8-.257.642-.385 1.156-.514 1.799v1.157c0 .129 0 .129.129.257l.129.257-.772.771c0-.385-.128-.77-.128-1.156 0-1.286.128-2.572.385-3.729.129-.77.257-1.413.514-2.056.129-.643.386-1.286.643-1.671.129-.515.386-.9.514-1.157l.258-.386-.258.386c-.128.257-.385.642-.642 1.157a20.931 20.931 0 00-.772 1.67l-.77 1.929c-.387 1.285-.772 2.571-.772 3.857v1.799c-.514.386-.9.772-1.414 1.157v-.514c0-.257 0-.514.128-.771.129-.643.257-1.414.386-2.186v-5.013c0-.386.128-.772.128-1.157 0-.386.129-.771.258-1.029.128-.514.385-.9.642-1.414 0-.128.129-.257.129-.385v-.129h.128s-.128.129-.257.386c-.257.514-.514.9-.771 1.414-.129.257-.257.643-.386 1.028l-.385 1.157c-.129.386-.129.9-.129 1.286v2.571c0 .386 0 .771-.128 1.157-.129.771-.258 1.414-.515 2.185-.128.643-.257 1.157-.128 1.8 0 .128 0 .257.128.386v.128c-.514.386-.9.771-1.414 1.286v-.772c0-.257 0-.643.129-.9.128-.77.386-1.542.386-2.442v-2.957c0-.257 0-.385-.129-.643v-.77c0-.515 0-.9.129-1.415 0-.386.128-.771.257-1.285.128-.386.257-.772.385-1.029.129-.385.257-.643.386-.9.128-.257.257-.514.386-.642.128-.129.128-.258.257-.386l.128-.129v.129c0 .128-.128.257-.257.386-.128.128-.257.385-.514.642-.257.258-.386.515-.514.772-.129.385-.386.771-.514 1.028-.129.386-.258.771-.386 1.286-.129.514-.129.9-.257 1.414v2.956c0 .515 0 .9-.129 1.414-.128.9-.385 1.672-.514 2.314-.129.386-.129.772-.129 1.029v.9c0 .257.129.385.258.642l-1.415 1.286v-.643c0-.386 0-.643.13-1.028.128-.772.385-1.672.513-2.7V21.52l-.128-.386c0-.257 0-.514-.129-.771v-.772c0-.514 0-1.028.129-1.414 0-.514.128-.9.257-1.414 0-.128.128-.257.128-.386l.129-.257.386-.642-.515.514v.128c0-.128.129-.385.258-.514.128-.386.257-.771.514-.9l.385-.771c.129-.129.257-.386.257-.514l.129-.129-.257.129c0 .128-.129.257-.386.386-.128.128-.257.385-.514.77a3.904 3.904 0 01-.643.9c-.257.386-.385.772-.514 1.158l-.129.257-.385.642c-.514.772-1.029 1.543-1.414 2.314-.514.9-.772 2.057-.772 3.086v2.956c0 .9-.257 1.8-.385 2.571a5.535 5.535 0 000 2.057c0 .129 0 .257.128.386v.257l-.77.771v-.128c0-.257-.13-.515 0-.772 0-.385 0-.771.128-1.157.128-1.028.257-2.056.257-3.085v-2.699c0-.258 0-.643-.129-.772 0-1.157 0-2.314.257-3.47.257-1.029.514-1.929 1.029-2.957.257-.643.642-1.286 1.028-1.929.257-.514.514-.77.514-.77s-.128.256-.514.642c-.386.643-.771 1.157-1.157 1.8-.514.9-.9 1.928-1.157 2.828-.386 1.157-.514 2.314-.514 3.6v3.469c-.129 1.028-.257 1.928-.514 2.957.128 1.157.128 2.057.257 2.828 0 .128 0 .257.128.386l.129.128c-.514.514-1.028 1.028-1.543 1.671v-.128c-.385-.386-.385-.643-.385-.9 0-.386 0-.772.128-1.157.129-1.029.257-2.057.257-3.085v-2.7c0-.257 0-.643-.128-.771 0-1.157 0-2.314.257-3.471.257-1.029.514-1.928 1.028-2.957.257-.643.643-1.285 1.029-1.928.257-.514.514-.771.514-.771s-.257.257-.514.77c-.386.644-.772 1.158-1.157 1.8-.514.9-.9 1.929-1.157 2.829-.386 1.157-.514 2.314-.514 3.6v3.47c-.129 1.029-.258 1.928-.515 2.957-.128.771-.257 1.542-.128 2.314 0 .128 0 .257.128.385l.129.129.128.128v.129l-.77.9c0-.257-.13-.514-.13-.771v-1.157c0-.9.258-1.929.386-3.086 0-.642 0-1.285-.128-1.8 0-.128 0-.256-.129-.514l-.257-.257c0-.257-.128-.642-.128-.771-.129-.643-.129-1.157-.129-1.8s.128-1.157.257-1.67c.257-1.03.771-1.93 1.286-2.829.514-.771.77-1.414 1.028-1.928.129-.257.129-.386.257-.643v-.257l-.128.128c0 .129-.129.258-.258.515-.257.514-.77 1.157-1.157 1.928-.642.9-1.028 1.8-1.414 2.828-.257.643-.385 1.157-.514 1.8v1.928c0 .257 0 .643.129.9l.128.514v2.056c-.128 1.158-.385 2.186-.514 3.086 0 .386-.128.9-.128 1.286 0 .385 0 .77.128 1.157 0 .128.129.257.129.385l.128.129-.643.771v-.128a4.867 4.867 0 010-1.929c0-.9.258-1.928.258-3.085 0-.643 0-1.285-.129-1.8 0-.257-.129-.642-.129-.9 0-.257-.128-.642-.128-.9-.129-1.156 0-2.313.257-3.47.257-1.029.514-1.928 1.028-2.957.258-.643.643-1.285 1.029-1.928.257-.514.514-.771.514-.771l-.643.642-1.157 1.928c-.514.9-.9 1.929-1.157 2.957-.385 1.157-.514 2.314-.514 3.6v.9c0 .257 0 .642.129.9v1.67c0 1.157-.257 2.186-.386 3.086a6.987 6.987 0 000 2.314c0 .128.129.257.129.385l.128.129.129.128c-.257.258-.515.643-.772.9v-.128c-.128-.257-.128-.515-.128-.772v-4.242c0-.643-.129-1.157-.257-1.8 0-.128 0-.257-.129-.514l-.128-.514c0-.257-.129-.643-.129-.9-.129-1.157-.129-2.314.129-3.47.128-1.03.514-2.058.9-2.957.257-.643.642-1.414 1.028-1.929.257-.514.514-.77.514-.77s-.128.256-.514.642l-1.157 1.928c-.514.9-.9 1.928-1.157 2.957-.257 1.157-.514 2.442-.386 3.728 0 .257 0 .643.129.9v.9c0 .642.128 1.156.128 1.67 0 1.158 0 2.186-.128 3.086 0 .771 0 1.542.128 2.314 0 .128.129.257.129.386l.128.128.13.129c-.258.385-.515.77-.772 1.157 0 0-.129-.129-.129-.258-.257-.642-.385-1.285-.514-1.928-.128-.9-.128-1.928-.386-3.085 0-.643-.128-1.157-.257-1.671-.128-.514-.257-1.157-.385-1.671-.129-.515-.129-1.157-.129-1.8v-1.671c0-1.029.129-2.057.257-2.957 0-.257 0-.386.129-.643 0-.128 0-.385.128-.643l.129-.514.128-.385c0-.257.129-.386.129-.643v-.129l-.129.129c0 .128-.128.257-.257.643l-.128.514v.643c0 .128-.129.385-.129.514 0 .128-.128.386-.128.643-.258 1.028-.386 2.056-.515 2.956v3.6c0 .642.129 1.285.258 1.8.128.514.257 1.156.257 1.67.128 1.029.128 2.186.128 3.086 0 .771.129 1.542.386 2.314.128.257.257.514.514.771-.257.386-.514.643-.643 1.028v-.128c-.257-.643-.514-1.286-.642-1.928-.258-.9-.386-1.929-.515-2.957v-1.8c0-.642 0-1.157-.128-1.8-.129-1.157-.386-2.313-.514-3.47-.129-1.029-.129-1.929-.129-2.957 0-.771.129-1.414.514-2.057 0-.128.129-.128.129-.257 0 0 0-.129.128-.257l.129-.129-.386.258-.128.128c0 .129-.129.129-.129.257-.386.643-.514 1.414-.643 2.057-.128 1.028-.128 2.057 0 2.957 0 1.157.129 2.185.258 3.47v3.343c0 1.028.128 2.057.385 3.085.129.771.257 1.414.643 2.185 0 .258.128.515.386.643v.129l-.129.257v-.129c-.257-.642-.643-1.285-.771-1.928-.257-.9-.515-1.928-.772-2.957-.128-.642-.257-1.157-.385-1.67-.129-.644-.257-1.158-.386-1.8-.257-1.157-.386-2.315-.514-3.471 0-1.029 0-2.057.128-3.086.129-.385.258-.77.386-1.157.129-.257.257-.642.514-.77.129-.13.257-.387.386-.515l.128-.129.129.257c-.128.129-.257.258-.386.515-.128.257-.385.514-.514.77-.128.387-.386.772-.514 1.158-.514 1.028-.643 2.057-.643 3.085 0 1.157.129 2.443.257 3.6 0 .642.129 1.157.257 1.8.129.642.129 1.156.258 1.67.128 1.157.385 2.186.514 3.086.128.771.385 1.542.771 2.185.129.257.257.514.514.643l-.128.386c-.129-.13-.257-.386-.515-.772-.257-.386-.385-.514-.642-.9-.129-.385-.386-.771-.643-1.157a4.75 4.75 0 01-.643-1.414c-.128-.514-.386-.9-.514-1.414l-.386-1.542c-.128-.515-.128-1.157-.257-1.672 0-.514-.128-1.028-.128-1.542v-4.114c0-.385 0-.643.128-.9 0-.128 0-.385.129-.514v-.128.128c0 .129-.129.386-.129.514 0 .257-.128.515-.257.9l-.128.514v5.271c0 .643 0 1.157.128 1.671 0 .643.129 1.157.257 1.671.129.515.257 1.029.514 1.543.258.514.386 1.028.643 1.414.129.514.386.9.643 1.285a2.8 2.8 0 00.643 1.029c.257.257.385.643.514.771.128.129.257.386.386.514-.258-.385-.643-.77-.772-1.285-.385-.643-.771-1.414-1.157-2.185-.128-.129-.257-.386-.385-.643-.129-.129-.258-.386-.386-.643-.257-.386-.386-.771-.643-1.285-.257-.9-.385-1.8-.385-2.7 0-.9.128-1.671 0-2.443 0-.642-.129-1.156-.386-1.67 0-.13-.129-.258-.257-.386l-.129-.129.129.129c0 .128.128.257.257.385.257.515.386 1.029.257 1.672 0 .77-.128 1.542-.257 2.442-.129.9 0 1.928.129 2.828.128.514.257.9.514 1.414.128.257.257.386.257.643.128.257.128.386.257.643.386.771.771 1.542 1.028 2.185.257.514.643 1.028.9 1.543 0 .128.129.257.257.257-.128.257-.257.642-.385.9l-.772-.772c-.385-.514-.771-1.028-1.157-1.67-.128-.13-.128-.258-.257-.515l-.257-.514-.257-.515-.386-.128-.385-1.157c-.129-.386-.257-.771-.257-1.157-.129-.643-.258-1.414-.386-2.057 0-.642-.129-1.157-.129-1.414v-.514 1.928c0 .772.129 1.414.129 2.057 0 .386.128.771.257 1.157l.386 1.157.128.643.257.642.258.515c0 .128.128.385.257.514.257.643.642 1.157.9 1.671l-.515-.129c-.257 0-.514-.128-.771-.257-.257-.128-.514-.128-.771-.128-.9-.129-1.929-.257-2.957-.257h-1.286 1.286c.9.128 1.928.257 2.828.642.257 0 .514.129.771.258.258.128.515.128.772.257.385.128.642.385.9.514h-1.157l-.515.129c-.642.128-1.285.385-1.8.642-.514.129-.77.386-.77.386s.385 0 .77-.129c.643-.128 1.158-.128 1.8-.128h1.029c.257 0 .514 0 .771.128.129 0 .386 0 .514.129v.128c-.128.386-.257.772-.514 1.157l-.771 2.314c-.514 1.414-.771 2.957-1.029 4.114-.257 1.286-.514 2.314-.642 3.214-.129.9-.258 1.542-.258 2.185v.771l.13-.77c0-.515.128-1.158.385-2.058a77.011 77.011 0 011.928-7.327c.257-.771.514-1.414.771-2.185l.257-.515.258.129c.257.128.514.128.77.128.386 0 .772 0 1.03-.128.77-.129 1.413-.514 2.185-.9.385-.257.77-.386 1.285-.643h.257c.386 0 .771.129 1.286.129.514 0 .771.128 1.285.128l1.157.257c.771.129 1.543.257 2.186.386h2.056-1.157c-.257 0-.514-.129-.77-.129-.644-.128-1.286-.385-2.058-.642l-1.157-.386c.129 0 .386 0 .643-.128.386-.129.771-.258 1.157-.515.257-.128.643-.514.771-.771.129-.129.257-.257.257-.386h1.414c.515 0 1.029 0 1.415-.128.385 0 .9-.129 1.285-.129.386 0 .771-.128 1.028-.257.258-.128.515-.128.772-.257.257 0 .386-.128.514-.257h.129-.129c-.129 0-.257.129-.514.129s-.514.128-.772.128c-.257 0-.642.129-1.028.129h-3.728l.129-.258c.128-.128.257-.257.385-.514l-.385.386-.257.257c-.643 0-1.286-.128-1.929-.128-.514 0-1.028-.129-1.542-.129h-1.543c-1.028 0-1.928.129-2.7.129-.642 0-1.156 0-1.67-.129h-.13c.13-.129.13-.386.258-.643.128 0 .386.129.643.129.77.128 1.414.128 2.185.128.9 0 1.8-.128 2.957-.385.514 0 1.028-.129 1.542-.129.515 0 1.157 0 1.671-.128 1.157 0 2.186 0 3.214-.129.514 0 1.029 0 1.543-.129.514 0 .9-.128 1.414-.257.386 0 .771-.128 1.157-.257l.514-.128.386-.129c.257-.128.385-.128.514-.257l.128-.129h-.128c-.129 0-.257.13-.514.13l-.386.128-.514.128c-.386.129-.771.129-1.157.257-.386 0-.9.129-1.286.129h-1.414c-1.028 0-2.185-.129-3.213-.129h-3.342c-1.03 0-2.058.129-2.829.129-.643 0-1.285 0-1.8-.129h-.257l.129-.385c.257 0 .386.128.643.128.77.129 1.542.129 2.442.129.9 0 2.057-.129 3.214-.257l1.8-.258.9-.128h.9c1.285 0 2.442 0 3.727-.129 1.029 0 2.186-.128 3.214-.385.386-.129.771-.257 1.285-.386.258-.129.643-.257.9-.514.129-.129.386-.257.515-.386l.128-.128s-.128 0-.128.128c-.129.129-.386.257-.515.386-.257.128-.642.257-.9.386-.385.128-.77.257-1.285.257a13.433 13.433 0 01-3.214 0c-1.157 0-2.442-.129-3.728-.258h-1.928l-1.8.13c-1.157 0-2.185.128-3.085.128-.771 0-1.414 0-2.185-.258h-.129l.257-.128c.257 0 .514.129.771.129.772.128 1.543.128 2.443 0 1.028 0 2.057-.129 3.342-.258l1.8-.257c.643 0 1.286-.128 1.8-.128 1.285 0 2.57 0 3.728-.129a12.95 12.95 0 003.213-.385c.386-.129.9-.258 1.286-.386.257-.129.643-.257.9-.514.129-.129.386-.257.514-.386l.129-.128s-.129 0-.129.128c-.128.129-.386.257-.514.386-.643.385-.9.514-1.286.514-.385.129-.77.257-1.285.257a13.434 13.434 0 01-3.214 0c-1.157 0-2.442-.129-3.728-.257h-1.928l-1.8.129c-1.157 0-2.314.128-3.214.128-.77 0-1.414 0-2.185-.129h-.386l.257-.514h.643c.771.129 1.671 0 2.443 0 1.028-.128 2.056-.385 3.213-.642.643-.129 1.157-.129 1.8-.129s1.286 0 1.928.129c1.286 0 2.572.128 3.728.128 1.157 0 2.186-.128 3.343-.386.771-.128 1.414-.514 2.185-.9.257-.128.386-.256.643-.256l.128-.13-.128.13c-.129 0-.386.128-.643.257-.771.257-1.414.642-2.185.77-1.029.13-2.186.258-3.214.13-1.157 0-2.443-.258-3.728-.386-.643 0-1.285-.129-1.928-.129s-1.286 0-1.929.129c-1.285.128-2.314.385-3.213.385h-2.443c.129-.257.386-.514.643-.77.257 0 .514.128.771.128h2.443c1.028-.129 2.057-.257 3.342-.386.643 0 1.157-.128 1.8-.128h3.985c.643 0 1.285-.13 1.928-.258 1.157-.128 2.314-.514 3.214-.642.9-.129 1.671-.386 2.314-.515.257 0 .514 0 .643-.128h.257-.9c-.643 0-1.414.128-2.314.257-.9.128-2.057.257-3.214.386-.643 0-1.285.128-1.8.128H35.48c-.643 0-1.285-.128-1.928-.128h-1.928c-1.286 0-2.314.128-3.343.257h-2.314c.258-.257.515-.643.772-.9.257.128.514.128.771.128h2.442c1.029 0 2.186-.128 3.343-.257h3.856c1.286 0 2.571-.257 3.857-.642 1.157-.258 2.314-.643 3.214-.772.385 0 .9-.128 1.285 0 .386 0 .643 0 1.029.129.385.385.514.514.77.642 0 0 .13 0 0 0zM33.295 28.59c.128-.771.257-1.671.257-2.7v-2.956c0-1.029.128-2.057.514-2.957.257-.771.771-1.543 1.157-2.314 0 .128-.129.386-.129.514-.128.514-.128 1.029-.257 1.543v1.542l.129.772v.771c0 .514 0 1.029-.129 1.414-.128.9-.385 1.8-.642 2.571-.129.386-.129.771-.258 1.157v1.029c0 .257.13.385.258.642l-.772.772v-.129c-.128-.514-.128-1.028-.128-1.671zm-14.14 22.625h1.67c-.257 0-.514.128-.771.128-.128 0-.514 0-.9-.128zm1.156-1.671c.771.128 1.414.128 2.057 0 .771 0 1.671-.257 2.7-.386.514 0 1.028-.129 1.414-.129h2.828l-.129.129c-.257.257-.514.386-.771.514-.386.129-.643.257-1.029.257H24.94c-.386 0-.643 0-.9.129h-.771c-.771 0-1.543-.129-2.186-.129-.642 0-1.028 0-1.414-.128l.258-.514c0 .128.257.128.385.257zM67.4 54.4c0 .4-.1.8-.2 1-.2.3-.4.5-.6.7-.2.2-.6.3-.9.4-.3.1-.7.1-1 .1h-4.2v-8.2h4.2c.3 0 .7 0 1 .1.3.1.6.2.8.4.2.2.4.4.5.7.1.3.2.6.2 1s-.1.7-.2 1c-.1.3-.3.5-.6.7.1.1.3.2.4.3l.4.4.3.6c-.1.3-.1.6-.1.8zm-5.8-2.2c.2-.1.5-.2.8-.3.3 0 .5-.1.8-.1h1.4c.4 0 .7-.1.9-.3.2-.2.3-.5.3-.9s-.1-.7-.3-.8c-.2-.2-.5-.2-.9-.2h-3v2.6zm0 3.3h3.1c.2 0 .3 0 .5-.1.2 0 .3-.1.5-.2s.3-.2.4-.4c.1-.1.1-.3.1-.5s0-.4-.1-.6c-.1-.2-.2-.3-.4-.4-.2-.1-.3-.1-.5-.2s-.4-.1-.6-.1h-1.4c-.3 0-.5 0-.8.1-.3 0-.5.1-.8.3v2.1zm10.3-4.6h1.2l3.1 5.8H75l-.5-.9h-.7c-.4 0-.7 0-1 .1-.3.1-.7.1-.9.2-.3.1-.5.2-.7.3-.2.1-.3.2-.4.2v.1h-1.2l2.7-5.1-.4-.7zm2 3.9l-1.1-2.1-1.4 2.6c.2-.1.5-.2.8-.3.3-.1.9-.2 1.5-.2h.2zM86.2 51v5.7h-7.3V51H80v4.5h2v-4.3h1.2v4.3h2V51h1zm8.8 1.8c.1.1.2.1.3.2.1.1.2.1.3.1h1.7c.3 0 .6 0 .8.1.2.1.5.2.6.3.2.2.3.3.4.6.1.2.2.5.2.8 0 .3-.1.6-.2.8-.1.2-.2.4-.4.6-.2.1-.4.3-.6.3-.2.1-.5.1-.8.1h-3.5V51h4.4v1.1H95v.7zm2.3 2.7h.3c.1 0 .2-.1.3-.1.1 0 .1-.1.2-.2s.1-.2.1-.3c0-.1 0-.2-.1-.3l-.2-.2c-.1 0-.2-.1-.3-.1h-.9c-.3 0-.6 0-1-.1-.3 0-.6-.1-.8-.3v1.6h2.4zm5-.3c.1.1.3.2.5.3.2.1.4.2.5.2.2 0 .4 0 .5-.1.1-.1.2-.2.3-.4-.3-.1-.5-.3-.8-.6-.3-.3-.5-.6-.8-1-.2-.4-.5-.8-.7-1.2-.2-.4-.4-.9-.5-1.3h1.3c.2.7.4 1.3.8 1.9.4.6.8 1 1.4 1.4.1-.2.2-.4.4-.6.1-.2.3-.5.4-.8.1-.3.3-.6.4-.9.1-.3.2-.6.3-1h1.2c-.1.4-.3.9-.5 1.3-.2.5-.4.9-.6 1.3-.2.4-.4.9-.7 1.2-.2.4-.5.7-.7 1.1-.1.2-.3.3-.4.4-.1.1-.3.2-.4.2-.1.1-.3.1-.4.1h-.9c-.2 0-.3-.1-.4-.1-.1-.1-.3-.1-.4-.2-.1-.1-.3-.2-.4-.2l.6-1zm12.6 2.7v-1.3h-4.7v1.3H109v-2.4h1.1c.3-.3.5-.7.7-1 .2-.3.3-.6.4-.9.1-.3.2-.6.2-.8 0-.2.1-.5.2-.7h-.9l-.5-1.1h5.2v4.6h.7V58h-1.2v-.1zm-.7-2.4v-3.4h-1.5c-.1.3-.1.6-.2.9l-.3.9-.3.9c-.1.3-.3.5-.4.7h2.7zm9.2-4.5h1.1v5.7h-1.1v-4.1l-3.3 4.1H119V51h1.1v4.1l3.3-4.1zm5.9 5.7h-1.1V51h1.1v2.3c.2-.1.4-.1.7-.1.2 0 .5 0 .8.1.3.1.6.1.9.1h.4c.1 0 .2-.1.4-.1V51h1.1v5.7h-1.1v-2.4c-.1.1-.2.1-.3.1h-.3c-.3 0-.6 0-.9-.1-.3-.1-.6-.1-.8-.1h-.4c-.1 0-.2.1-.4.1v2.4h-.1zm14-2.9c0 .5-.1.9-.3 1.3-.2.4-.4.7-.8 1-.3.3-.7.5-1.1.6-.4.1-.8.2-1.3.2-.4 0-.9-.1-1.3-.2s-.8-.3-1.1-.6c-.3-.3-.6-.6-.7-1-.2-.4-.3-.8-.3-1.3s.1-.9.3-1.3c.2-.4.4-.7.8-.9.3-.3.7-.5 1.1-.6.4-.1.8-.2 1.2-.2.4 0 .8.1 1.2.2.4.1.8.3 1.1.6.3.2.6.6.8.9.3.4.4.8.4 1.3zm-1.2 0c0-.3-.1-.6-.2-.8-.1-.2-.3-.4-.5-.6-.2-.2-.4-.3-.7-.3-.3-.1-.5-.1-.8-.1-.3 0-.5 0-.8.1-.3.1-.5.2-.7.3-.2.2-.4.3-.5.6-.1.2-.2.5-.2.8 0 .3.1.6.2.8.1.2.3.4.5.6.2.2.4.3.7.3.3 0 .5.1.8.1.3 0 .5 0 .8-.1.3-.1.5-.2.7-.4.2-.2.4-.4.5-.6.2-.1.2-.4.2-.7zm5.5 2.9h-1.2V51h1.2v2.3h.9c.1 0 .3-.1.4-.2l1.6-2.1h1.5l-2.1 2.7 1 1.3c.2.2.3.4.5.5.2.1.4.1.5.1h.4v1.1h-.9c-.1 0-.3 0-.4-.1-.1-.1-.3-.1-.4-.3-.1-.2-.3-.3-.4-.5l-1-1.4c-.1.1-.3.1-.5.1h-1v2.2h-.1zm12.9-3.9c.1.1.2.1.3.2.1.1.2.1.3.1h1.7c.3 0 .6 0 .8.1.2.1.5.2.6.3.2.2.3.3.4.6.1.2.2.5.2.8 0 .3-.1.6-.2.8-.1.2-.2.4-.4.6-.2.1-.4.3-.6.3-.2.1-.5.1-.8.1h-3.5V51h4.4v1.1h-3.3v.7h.1zm2.4 2.7h.3c.1 0 .2-.1.3-.1.1 0 .1-.1.2-.2s.1-.2.1-.3c0-.1 0-.2-.1-.3l-.2-.2c-.1 0-.2-.1-.3-.1h-.9c-.3 0-.6 0-1-.1-.3 0-.6-.1-.8-.3v1.6h2.4zm5 1.2V51h1.1v5.7h-1.1zm4.8-4.6l-.5-1.1h5.4v5.7h-1.2v-4.6h-1.6c0 .3-.1.7-.1 1.1 0 .4-.1.7-.2 1.1-.1.4-.2.7-.4 1-.2.3-.3.6-.5.9l-.3.3c-.1.1-.2.1-.3.1-.1 0-.2.1-.3.1h-.8v-1.1h.3c.1 0 .2 0 .4-.1.1-.1.3-.2.5-.5.1-.2.3-.4.3-.7.1-.2.2-.4.2-.7.1-.2.1-.5.1-.7 0-.2.1-.5.1-.8h-1.1zm10.2 3.7c-.1.2-.2.4-.4.5-.2.1-.3.2-.4.3-.1.1-.3.1-.4.1h-1v-1.2h.6c.1 0 .2 0 .3-.1.1-.1.3-.2.4-.5l.2-.4c-.5-.1-.8-.3-1.1-.6-.2-.3-.4-.7-.4-1.1 0-.3 0-.5.1-.7.1-.2.2-.4.4-.6.2-.2.4-.3.6-.4.2-.1.5-.1.8-.1h3.5v5.7h-1.2V55c-.1-.1-.2-.1-.3-.2-.1 0-.2-.1-.3-.1-.1 0-.2-.1-.4-.1h-.5l-.5 1.2zm2.2-3.7h-2.3c-.1 0-.2 0-.3.1-.1 0-.2.1-.2.2-.1.1-.1.2-.1.4s0 .3.1.4c.1.1.1.2.2.2s.2.1.3.1h.4c.4 0 .8 0 1.1.1.3 0 .6.1.8.3v-1.8zm15.3 5.8v-1.3H194v1.3h-1.2v-2.5h1.2c.6-.8 1.2-1.7 1.5-2.6.4-1 .7-2 .9-3.2h-.9l-.5-1.2h5.8v7h.7v2.5h-1.1zm-.7-2.4v-5.8h-2c-.1.4-.1.9-.3 1.4-.1.5-.3 1-.5 1.5l-.6 1.5c-.2.5-.5.9-.8 1.3h4.2v.1zm6 0h3.6v1.1h-4.7V51h4.5v1.1h-3.4v1.4c.2-.1.5-.2.8-.3.3 0 .6-.1 1-.1h.8v1.1h-1.9c-.1 0-.2.1-.3.1-.1 0-.2.1-.3.2v1h-.1zm11.9.5c-.3.3-.7.5-1.1.6-.4.1-.8.2-1.3.2-.4 0-.9-.1-1.3-.2s-.8-.3-1.1-.6c-.3-.3-.6-.6-.7-1-.2-.4-.3-.8-.3-1.3s.1-.9.3-1.3c.2-.4.4-.7.8-.9.3-.3.7-.5 1.1-.6.4-.1.8-.2 1.2-.2.4 0 .8.1 1.2.2.4.1.7.3 1 .5l-.8.9c-.2-.1-.4-.3-.7-.3-.2-.1-.5-.1-.8-.1-.3 0-.5 0-.8.1-.3.1-.5.2-.7.3-.2.2-.4.4-.5.6-.1.2-.2.5-.2.8 0 .3.1.6.2.8.1.2.3.4.5.6.2.2.4.3.7.3.3.1.5.1.8.1.3 0 .6-.1.9-.2.3-.1.5-.3.8-.5l.8 1.2zm4.1.7h-1.1V51h1.1v2.3c.2-.1.4-.1.7-.1.2 0 .5 0 .8.1.3.1.6.1.9.1h.4c.1 0 .2-.1.4-.1V51h1.1v5.7h-1.1v-2.4c-.1.1-.2.1-.3.1h-.3c-.3 0-.6 0-.9-.1-.3-.1-.6-.1-.8-.1h-.4c-.1 0-.2.1-.4.1v2.4h-.1zM234 51h1.1v5.7H234v-4.1l-3.3 4.1h-1.1V51h1.1v4.1L234 51z" fill="#F6F6F6"/></svg></svg>