<svg width="2084" height="3811" fill="none" xmlns="http://www.w3.org/2000/svg"><g filter="url(#filter0_b_654_943)"><path fill-rule="evenodd" clip-rule="evenodd" d="M2084 0H0v3719h10.625v-30.52h26.563c5.312-20.58 7.968-53.12 7.968-101.6v-112.22h195.899v213.82h29.218V3719h93.212l47.835-72.35c-25.234-9.3-39.843-28.56-39.843-55.12 0-38.51 28.554-63.75 73.711-63.75h89.648V3719h130.422v-191.22h39.844v88.99l89.648-88.99h50.469l-83.008 79.69 81.17 111.53h163.389l-84.254-191.22h43.828l69.726 166.68 54.45-166.68h41.18L1063.45 3719h202.31c-31.45-16.38-50.79-49.4-50.79-91.61 0-61.09 40.51-102.93 99.61-102.93 43.16 0 77.69 21.25 89.65 58.44l-36.53 12.62c-9.29-23.25-27.89-37.19-53.12-37.19-31.88 0-53.13 19.92-59.1 51.13h84.33v31.88h-85c4.65 33.86 26.57 55.11 59.77 55.11 25.23 0 43.83-13.94 53.12-37.18l36.53 12.61c-6.83 21.23-21.01 37.27-39.95 47.12h149.78v-191.22h61.1l57.11 154.73 56.44-154.73h60.43V3719h166.23c-31.6-16.16-50.42-48.71-50.42-91.61 0-61.09 41.17-102.93 100.94-102.93 61.09 0 100.94 40.51 100.94 102.93 0 42.21-19.66 75.23-51.52 91.61H2084V0zm-373.38 3719v-149.38L1655.79 3719h54.83zm-103.21 0l-54.83-149.38V3719h54.83zm-812.496 0l-61.258-84.3-28.554 27.22V3719h89.812zm-299.922 0v-67.04h-43.828L407.856 3719h87.136zM86.328 3586.88c0 38.52-3.32 75.71-8.633 102.27H199.22v-176.64H86.329v74.37zm324.992 3.99c0 19.92 13.946 31.21 37.852 31.21h45.82v-61.1h-45.82c-23.906 0-37.852 11.29-37.852 29.89zm1494.14 36.52c0 41.84 23.91 69.06 60.43 69.06 36.52 0 60.43-27.22 60.43-69.06s-23.91-69.06-60.43-69.06c-36.52 0-60.43 27.22-60.43 69.06z" fill="#000" fill-opacity=".75"/></g><path d="M241.055 3688.48v-213.82H45.156v112.22c0 48.48-2.656 81.02-7.968 101.6H10.625v91.64h41.172V3727h177.969v53.12h40.507v-91.64h-29.218zm-163.36.67c5.313-26.56 8.633-63.75 8.633-102.27v-74.37H199.22v176.64H77.695zm457.141-161.37h-89.648c-45.157 0-73.711 25.24-73.711 63.75 0 26.56 14.609 45.82 39.843 55.12L358.195 3727h44.493l48.476-75.04h43.828V3727h39.844v-199.22zm-85.664 94.3c-23.906 0-37.852-11.29-37.852-31.21 0-18.6 13.946-29.89 37.852-29.89h45.82v61.1h-45.82zM800.727 3727h48.476l-86.992-119.53 83.008-79.69H794.75l-89.648 88.99v-88.99h-39.844V3727h39.844v-65.08l28.554-27.22 67.071 92.3zm289.793-199.22l-54.45 166.68-69.726-166.68h-43.828l93.634 212.5c-7.31 13.28-15.27 20.59-25.9 20.59-17.266 0-21.914-13.28-21.25-28.56l-36.523 5.98c0 30.55 17.265 58.44 57.109 58.44 33.864 0 55.784-26.57 68.394-62.43l73.72-206.52h-41.18zm224.06 168.67c-33.2 0-55.12-21.25-59.77-55.11h85v-31.88h-84.33c5.97-31.21 27.22-51.13 59.1-51.13 25.23 0 43.83 13.94 53.12 37.19l36.53-12.62c-11.96-37.19-46.49-58.44-89.65-58.44-59.1 0-99.61 41.84-99.61 102.93s40.51 102.93 99.61 102.93c43.16 0 77.69-21.25 89.65-58.44l-36.53-12.61c-9.29 23.24-27.89 37.18-53.12 37.18zm434.56-168.67h-60.43l-56.44 154.73-57.11-154.73h-61.1V3727h38.52v-157.38l57.77 157.38h42.5l57.77-157.38V3727h38.52v-199.22zm216.75 202.54c59.77 0 100.94-41.84 100.94-102.93 0-62.42-39.85-102.93-100.94-102.93-59.77 0-100.94 41.84-100.94 102.93 0 62.42 39.85 102.93 100.94 102.93zm0-33.87c-36.52 0-60.43-27.22-60.43-69.06s23.91-69.06 60.43-69.06c36.52 0 60.43 27.22 60.43 69.06s-23.91 69.06-60.43 69.06z" fill="#000" fill-opacity=".35"/><defs><filter id="filter0_b_654_943" x="-10" y="-10" width="2104" height="3739" filterUnits="userSpaceOnUse" color-interpolation-filters="sRGB"><feFlood flood-opacity="0" result="BackgroundImageFix"/><feGaussianBlur in="BackgroundImage" stdDeviation="5"/><feComposite in2="SourceAlpha" operator="in" result="effect1_backgroundBlur_654_943"/><feBlend in="SourceGraphic" in2="effect1_backgroundBlur_654_943" result="shape"/></filter></defs></svg>