<svg width="5354" height="3315" viewBox="0 0 5354 3315" fill="none" xmlns="http://www.w3.org/2000/svg">
<g filter="url(#filter0_b_650_942)">
<path fill-rule="evenodd" clip-rule="evenodd" d="M5354 0H0V3315H2098.65V3273.33L2267.59 3040.91H2337.91V3270.4H2397.48V3315H2545.19C2536.36 3289.41 2531.66 3259.64 2531.66 3226.45C2531.66 3110.24 2589.27 3036.02 2680.09 3036.02C2770.91 3036.02 2828.53 3110.24 2828.53 3226.45C2828.53 3259.64 2823.83 3289.41 2815 3315H2962.71V3273.33L3131.66 3040.91H3201.97V3270.4H3261.54V3315H5354V0ZM2752.4 3315C2763.12 3292.01 2768.96 3261.98 2768.96 3226.45C2768.96 3140.52 2734.78 3086.8 2680.09 3086.8C2625.41 3086.8 2591.23 3140.52 2591.23 3226.45C2591.23 3261.98 2597.07 3292.01 2607.79 3315H2752.4ZM2281.27 3102.43L2159.2 3270.4H2281.27V3102.43ZM3145.33 3102.43L3023.26 3270.4H3145.33V3102.43Z" fill="black" fill-opacity="0.75"/>
</g>
<defs>
<filter id="filter0_b_650_942" x="-10" y="-10" width="5374" height="3335" filterUnits="userSpaceOnUse" color-interpolation-filters="sRGB">
<feFlood flood-opacity="0" result="BackgroundImageFix"/>
<feGaussianBlur in="BackgroundImage" stdDeviation="5"/>
<feComposite in2="SourceAlpha" operator="in" result="effect1_backgroundBlur_650_942"/>
<feBlend mode="normal" in="SourceGraphic" in2="effect1_backgroundBlur_650_942" result="shape"/>
</filter>
</defs>
</svg>
