<svg width="5936" height="3811" viewBox="0 0 5936 3811" fill="none" xmlns="http://www.w3.org/2000/svg">
<g filter="url(#filter0_b_654_943)">
<path fill-rule="evenodd" clip-rule="evenodd" d="M5936 0H0V3719H1936.62V3688.48H1963.19C1968.5 3667.9 1971.16 3635.36 1971.16 3586.88V3474.66H2167.05V3688.48H2196.27V3719H2289.48L2337.32 3646.65C2312.09 3637.35 2297.48 3618.09 2297.48 3591.53C2297.48 3553.02 2326.03 3527.78 2371.19 3527.78H2460.84V3719H2591.26V3527.78H2631.1V3616.77L2720.75 3527.78H2771.22L2688.21 3607.47L2769.38 3719H2932.77L2848.52 3527.78H2892.34L2962.07 3694.46L3016.52 3527.78H3057.7L2989.45 3719H3191.76C3160.31 3702.62 3140.97 3669.6 3140.97 3627.39C3140.97 3566.3 3181.48 3524.46 3240.58 3524.46C3283.74 3524.46 3318.27 3545.71 3330.23 3582.9L3293.7 3595.52C3284.41 3572.27 3265.81 3558.33 3240.58 3558.33C3208.7 3558.33 3187.45 3578.25 3181.48 3609.46H3265.81V3641.34H3180.81C3185.46 3675.2 3207.38 3696.45 3240.58 3696.45C3265.81 3696.45 3284.41 3682.51 3293.7 3659.27L3330.23 3671.88C3323.4 3693.11 3309.22 3709.15 3290.28 3719H3440.06V3527.78H3501.16L3558.27 3682.51L3614.71 3527.78H3675.14V3719H3841.37C3809.77 3702.84 3790.95 3670.29 3790.95 3627.39C3790.95 3566.3 3832.12 3524.46 3891.89 3524.46C3952.98 3524.46 3992.83 3564.97 3992.83 3627.39C3992.83 3669.6 3973.17 3702.62 3941.31 3719H5936V0ZM3636.62 3719V3569.62L3581.79 3719H3636.62ZM3533.41 3719L3478.58 3569.62V3719H3533.41ZM2720.91 3719L2659.66 3634.7L2631.1 3661.92V3719H2720.91ZM2420.99 3719V3651.96H2377.16L2333.86 3719H2420.99ZM2012.33 3586.88C2012.33 3625.4 2009.01 3662.59 2003.7 3689.15H2125.22V3512.51H2012.33V3586.88ZM2337.32 3590.87C2337.32 3610.79 2351.27 3622.08 2375.17 3622.08H2420.99V3560.98H2375.17C2351.27 3560.98 2337.32 3572.27 2337.32 3590.87ZM3831.46 3627.39C3831.46 3669.23 3855.37 3696.45 3891.89 3696.45C3928.41 3696.45 3952.32 3669.23 3952.32 3627.39C3952.32 3585.55 3928.41 3558.33 3891.89 3558.33C3855.37 3558.33 3831.46 3585.55 3831.46 3627.39Z" fill="black" fill-opacity="0.75"/>
</g>
<path d="M2167.05 3688.48V3474.66H1971.16V3586.88C1971.16 3635.36 1968.5 3667.9 1963.19 3688.48H1936.62V3780.12H1977.8V3727H2155.77V3780.12H2196.27V3688.48H2167.05ZM2003.7 3689.15C2009.01 3662.59 2012.33 3625.4 2012.33 3586.88V3512.51H2125.22V3689.15H2003.7ZM2460.84 3527.78H2371.19C2326.03 3527.78 2297.48 3553.02 2297.48 3591.53C2297.48 3618.09 2312.09 3637.35 2337.32 3646.65L2284.2 3727H2328.69L2377.16 3651.96H2420.99V3727H2460.84V3527.78ZM2375.17 3622.08C2351.27 3622.08 2337.32 3610.79 2337.32 3590.87C2337.32 3572.27 2351.27 3560.98 2375.17 3560.98H2420.99V3622.08H2375.17ZM2726.73 3727H2775.2L2688.21 3607.47L2771.22 3527.78H2720.75L2631.1 3616.77V3527.78H2591.26V3727H2631.1V3661.92L2659.66 3634.7L2726.73 3727ZM3016.52 3527.78L2962.07 3694.46L2892.34 3527.78H2848.52L2942.15 3740.28C2934.84 3753.56 2926.88 3760.87 2916.25 3760.87C2898.98 3760.87 2894.34 3747.59 2895 3732.31L2858.48 3738.29C2858.48 3768.84 2875.74 3796.73 2915.59 3796.73C2949.45 3796.73 2971.37 3770.16 2983.98 3734.3L3057.7 3527.78H3016.52ZM3240.58 3696.45C3207.38 3696.45 3185.46 3675.2 3180.81 3641.34H3265.81V3609.46H3181.48C3187.45 3578.25 3208.7 3558.33 3240.58 3558.33C3265.81 3558.33 3284.41 3572.27 3293.7 3595.52L3330.23 3582.9C3318.27 3545.71 3283.74 3524.46 3240.58 3524.46C3181.48 3524.46 3140.97 3566.3 3140.97 3627.39C3140.97 3688.48 3181.48 3730.32 3240.58 3730.32C3283.74 3730.32 3318.27 3709.07 3330.23 3671.88L3293.7 3659.27C3284.41 3682.51 3265.81 3696.45 3240.58 3696.45ZM3675.14 3527.78H3614.71L3558.27 3682.51L3501.16 3527.78H3440.06V3727H3478.58V3569.62L3536.35 3727H3578.85L3636.62 3569.62V3727H3675.14V3527.78ZM3891.89 3730.32C3951.66 3730.32 3992.83 3688.48 3992.83 3627.39C3992.83 3564.97 3952.98 3524.46 3891.89 3524.46C3832.12 3524.46 3790.95 3566.3 3790.95 3627.39C3790.95 3689.81 3830.8 3730.32 3891.89 3730.32ZM3891.89 3696.45C3855.37 3696.45 3831.46 3669.23 3831.46 3627.39C3831.46 3585.55 3855.37 3558.33 3891.89 3558.33C3928.41 3558.33 3952.32 3585.55 3952.32 3627.39C3952.32 3669.23 3928.41 3696.45 3891.89 3696.45Z" fill="black" fill-opacity="0.35"/>
<defs>
<filter id="filter0_b_654_943" x="-10" y="-10" width="5956" height="3739" filterUnits="userSpaceOnUse" color-interpolation-filters="sRGB">
<feFlood flood-opacity="0" result="BackgroundImageFix"/>
<feGaussianBlur in="BackgroundImage" stdDeviation="5"/>
<feComposite in2="SourceAlpha" operator="in" result="effect1_backgroundBlur_654_943"/>
<feBlend mode="normal" in="SourceGraphic" in2="effect1_backgroundBlur_654_943" result="shape"/>
</filter>
</defs>
</svg>
