<svg width="2084" height="3811" viewBox="0 0 2084 3811" fill="none" xmlns="http://www.w3.org/2000/svg">
<g filter="url(#filter0_b_654_943)">
<path fill-rule="evenodd" clip-rule="evenodd" d="M2084 0H0V3719H10.625V3688.48H37.1875C42.5 3667.9 45.1562 3635.36 45.1562 3586.88V3474.66H241.055V3688.48H270.273V3719H363.485L411.32 3646.65C386.086 3637.35 371.477 3618.09 371.477 3591.53C371.477 3553.02 400.031 3527.78 445.188 3527.78H534.836V3719H665.258V3527.78H705.102V3616.77L794.75 3527.78H845.219L762.211 3607.47L843.381 3719H1006.77L922.516 3527.78H966.344L1036.07 3694.46L1090.52 3527.78H1131.7L1063.45 3719H1265.76C1234.31 3702.62 1214.97 3669.6 1214.97 3627.39C1214.97 3566.3 1255.48 3524.46 1314.58 3524.46C1357.74 3524.46 1392.27 3545.71 1404.23 3582.9L1367.7 3595.52C1358.41 3572.27 1339.81 3558.33 1314.58 3558.33C1282.7 3558.33 1261.45 3578.25 1255.48 3609.46H1339.81V3641.34H1254.81C1259.46 3675.2 1281.38 3696.45 1314.58 3696.45C1339.81 3696.45 1358.41 3682.51 1367.7 3659.27L1404.23 3671.88C1397.4 3693.11 1383.22 3709.15 1364.28 3719H1514.06V3527.78H1575.16L1632.27 3682.51L1688.71 3527.78H1749.14V3719H1915.37C1883.77 3702.84 1864.95 3670.29 1864.95 3627.39C1864.95 3566.3 1906.12 3524.46 1965.89 3524.46C2026.98 3524.46 2066.83 3564.97 2066.83 3627.39C2066.83 3669.6 2047.17 3702.62 2015.31 3719H2084V0ZM1710.62 3719V3569.62L1655.79 3719H1710.62ZM1607.41 3719L1552.58 3569.62V3719H1607.41ZM794.914 3719L733.656 3634.7L705.102 3661.92V3719H794.914ZM494.992 3719V3651.96H451.164L407.856 3719H494.992ZM86.3281 3586.88C86.3281 3625.4 83.0078 3662.59 77.6953 3689.15H199.219V3512.51H86.3281V3586.88ZM411.32 3590.87C411.32 3610.79 425.266 3622.08 449.172 3622.08H494.992V3560.98H449.172C425.266 3560.98 411.32 3572.27 411.32 3590.87ZM1905.46 3627.39C1905.46 3669.23 1929.37 3696.45 1965.89 3696.45C2002.41 3696.45 2026.32 3669.23 2026.32 3627.39C2026.32 3585.55 2002.41 3558.33 1965.89 3558.33C1929.37 3558.33 1905.46 3585.55 1905.46 3627.39Z" fill="black" fill-opacity="0.75"/>
</g>
<path d="M241.055 3688.48V3474.66H45.1562V3586.88C45.1562 3635.36 42.5 3667.9 37.1875 3688.48H10.625V3780.12H51.7969V3727H229.766V3780.12H270.273V3688.48H241.055ZM77.6953 3689.15C83.0078 3662.59 86.3281 3625.4 86.3281 3586.88V3512.51H199.219V3689.15H77.6953ZM534.836 3527.78H445.188C400.031 3527.78 371.477 3553.02 371.477 3591.53C371.477 3618.09 386.086 3637.35 411.32 3646.65L358.195 3727H402.688L451.164 3651.96H494.992V3727H534.836V3527.78ZM449.172 3622.08C425.266 3622.08 411.32 3610.79 411.32 3590.87C411.32 3572.27 425.266 3560.98 449.172 3560.98H494.992V3622.08H449.172ZM800.727 3727H849.203L762.211 3607.47L845.219 3527.78H794.75L705.102 3616.77V3527.78H665.258V3727H705.102V3661.92L733.656 3634.7L800.727 3727ZM1090.52 3527.78L1036.07 3694.46L966.344 3527.78H922.516L1016.15 3740.28C1008.84 3753.56 1000.88 3760.87 990.25 3760.87C972.984 3760.87 968.336 3747.59 969 3732.31L932.477 3738.29C932.477 3768.84 949.742 3796.73 989.586 3796.73C1023.45 3796.73 1045.37 3770.16 1057.98 3734.3L1131.7 3527.78H1090.52ZM1314.58 3696.45C1281.38 3696.45 1259.46 3675.2 1254.81 3641.34H1339.81V3609.46H1255.48C1261.45 3578.25 1282.7 3558.33 1314.58 3558.33C1339.81 3558.33 1358.41 3572.27 1367.7 3595.52L1404.23 3582.9C1392.27 3545.71 1357.74 3524.46 1314.58 3524.46C1255.48 3524.46 1214.97 3566.3 1214.97 3627.39C1214.97 3688.48 1255.48 3730.32 1314.58 3730.32C1357.74 3730.32 1392.27 3709.07 1404.23 3671.88L1367.7 3659.27C1358.41 3682.51 1339.81 3696.45 1314.58 3696.45ZM1749.14 3527.78H1688.71L1632.27 3682.51L1575.16 3527.78H1514.06V3727H1552.58V3569.62L1610.35 3727H1652.85L1710.62 3569.62V3727H1749.14V3527.78ZM1965.89 3730.32C2025.66 3730.32 2066.83 3688.48 2066.83 3627.39C2066.83 3564.97 2026.98 3524.46 1965.89 3524.46C1906.12 3524.46 1864.95 3566.3 1864.95 3627.39C1864.95 3689.81 1904.8 3730.32 1965.89 3730.32ZM1965.89 3696.45C1929.37 3696.45 1905.46 3669.23 1905.46 3627.39C1905.46 3585.55 1929.37 3558.33 1965.89 3558.33C2002.41 3558.33 2026.32 3585.55 2026.32 3627.39C2026.32 3669.23 2002.41 3696.45 1965.89 3696.45Z" fill="black" fill-opacity="0.35"/>
<defs>
<filter id="filter0_b_654_943" x="-10" y="-10" width="2104" height="3739" filterUnits="userSpaceOnUse" color-interpolation-filters="sRGB">
<feFlood flood-opacity="0" result="BackgroundImageFix"/>
<feGaussianBlur in="BackgroundImage" stdDeviation="5"/>
<feComposite in2="SourceAlpha" operator="in" result="effect1_backgroundBlur_654_943"/>
<feBlend mode="normal" in="SourceGraphic" in2="effect1_backgroundBlur_654_943" result="shape"/>
</filter>
</defs>
</svg>
